<?xml version="1.0" encoding="UTF-8" standalone="no"?>
<!-- Created with Inkscape (http://www.inkscape.org/) -->

<svg
   xmlns:dc="http://purl.org/dc/elements/1.1/"
   xmlns:cc="http://creativecommons.org/ns#"
   xmlns:rdf="http://www.w3.org/1999/02/22-rdf-syntax-ns#"
   xmlns:svg="http://www.w3.org/2000/svg"
   xmlns="http://www.w3.org/2000/svg"
   xmlns:inkscape="http://www.inkscape.org/namespaces/inkscape"
   version="1.1"
   width="483.75"
   height="106.25"
   id="svg2"
   xml:space="preserve"><metadata
     id="metadata8"><rdf:RDF><cc:Work
         rdf:about=""><dc:format>image/svg+xml</dc:format><dc:type
           rdf:resource="http://purl.org/dc/dcmitype/StillImage" /></cc:Work></rdf:RDF></metadata><defs
     id="defs6"><clipPath
       id="clipPath18"><path
         d="m 6.66797,8.33203 3863.33003,0 0,841.668 -3863.33003,0 0,-841.668 z"
         inkscape:connector-curvature="0"
         id="path20" /></clipPath><clipPath
       id="clipPath230"><path
         d="m 301.668,757.5 3473.332,0 0,-496.668 -3473.332,0 0,496.668 z"
         inkscape:connector-curvature="0"
         id="path232" /></clipPath><clipPath
       id="clipPath302"><path
         d="M 6,8 6,850 3870,850 3870,8 6,8 z"
         inkscape:connector-curvature="0"
         id="path304" /></clipPath></defs><g
     transform="matrix(1.25,0,0,-1.25,0,106.25)"
     id="g10"><g
       transform="scale(0.1,0.1)"
       id="g12"><g
         id="g14"><g
           clip-path="url(#clipPath18)"
           id="g16"><path
             d="m 301.668,261.668 3472.5,0 0,495.832 -3472.5,0 0,-495.832 z"
             inkscape:connector-curvature="0"
             id="path22"
             style="fill:#ffffff;fill-opacity:1;fill-rule:evenodd;stroke:none" /><path
             d="m 301.668,261.668 0,495.832 3472.502,0 0,-495.832 -3472.502,0"
             inkscape:connector-curvature="0"
             id="path24"
             style="fill:none;stroke:#ffffff;stroke-width:5;stroke-linecap:butt;stroke-linejoin:round;stroke-miterlimit:10;stroke-opacity:1;stroke-dasharray:none" /><path
             d="m 301.668,261.668 3472.502,0"
             inkscape:connector-curvature="0"
             id="path26"
             style="fill:none;stroke:#000000;stroke-width:5;stroke-linecap:butt;stroke-linejoin:round;stroke-miterlimit:10;stroke-opacity:1;stroke-dasharray:none" /><path
             d="m 301.668,261.668 0,495.832"
             inkscape:connector-curvature="0"
             id="path28"
             style="fill:none;stroke:#000000;stroke-width:5;stroke-linecap:butt;stroke-linejoin:round;stroke-miterlimit:10;stroke-opacity:1;stroke-dasharray:none" /><path
             d="m 301.668,261.668 0,35"
             inkscape:connector-curvature="0"
             id="path30"
             style="fill:none;stroke:#000000;stroke-width:5;stroke-linecap:butt;stroke-linejoin:round;stroke-miterlimit:10;stroke-opacity:1;stroke-dasharray:none" /><g
             transform="scale(10,10)"
             id="g32"><text
               transform="matrix(1,0,0,-1,18.8332,14)"
               id="text34"><tspan
                 x="0 5.8400002 11.4"
                 y="0"
                 id="tspan36"
                 style="font-size:10px;font-variant:normal;font-weight:normal;writing-mode:lr-tb;fill:#000000;fill-opacity:1;fill-rule:nonzero;stroke:none;font-family:Helvetica;-inkscape-font-specification:Helvetica">−15</tspan></text>
</g><path
             d="m 880.832,261.668 0,35"
             inkscape:connector-curvature="0"
             id="path38"
             style="fill:none;stroke:#000000;stroke-width:5;stroke-linecap:butt;stroke-linejoin:round;stroke-miterlimit:10;stroke-opacity:1;stroke-dasharray:none" /><g
             transform="scale(10,10)"
             id="g40"><text
               transform="matrix(1,0,0,-1,76.75,14)"
               id="text42"><tspan
                 x="0 5.8400002 11.4"
                 y="0"
                 id="tspan44"
                 style="font-size:10px;font-variant:normal;font-weight:normal;writing-mode:lr-tb;fill:#000000;fill-opacity:1;fill-rule:nonzero;stroke:none;font-family:Helvetica;-inkscape-font-specification:Helvetica">−10</tspan></text>
</g><path
             d="m 1459.17,261.668 0,35"
             inkscape:connector-curvature="0"
             id="path46"
             style="fill:none;stroke:#000000;stroke-width:5;stroke-linecap:butt;stroke-linejoin:round;stroke-miterlimit:10;stroke-opacity:1;stroke-dasharray:none" /><g
             transform="scale(10,10)"
             id="g48"><text
               transform="matrix(1,0,0,-1,137.333,14)"
               id="text50"><tspan
                 x="0 5.8400002"
                 y="0"
                 id="tspan52"
                 style="font-size:10px;font-variant:normal;font-weight:normal;writing-mode:lr-tb;fill:#000000;fill-opacity:1;fill-rule:nonzero;stroke:none;font-family:Helvetica;-inkscape-font-specification:Helvetica">−5</tspan></text>
</g><path
             d="m 2038.33,261.668 0,35"
             inkscape:connector-curvature="0"
             id="path54"
             style="fill:none;stroke:#000000;stroke-width:5;stroke-linecap:butt;stroke-linejoin:round;stroke-miterlimit:10;stroke-opacity:1;stroke-dasharray:none" /><g
             transform="scale(10,10)"
             id="g56"><text
               transform="matrix(1,0,0,-1,201.083,14)"
               id="text58"><tspan
                 x="0"
                 y="0"
                 id="tspan60"
                 style="font-size:10px;font-variant:normal;font-weight:normal;writing-mode:lr-tb;fill:#000000;fill-opacity:1;fill-rule:nonzero;stroke:none;font-family:Helvetica;-inkscape-font-specification:Helvetica">0</tspan></text>
</g><path
             d="m 2616.67,261.668 0,35"
             inkscape:connector-curvature="0"
             id="path62"
             style="fill:none;stroke:#000000;stroke-width:5;stroke-linecap:butt;stroke-linejoin:round;stroke-miterlimit:10;stroke-opacity:1;stroke-dasharray:none" /><g
             transform="scale(10,10)"
             id="g64"><text
               transform="matrix(1,0,0,-1,258.917,14)"
               id="text66"><tspan
                 x="0"
                 y="0"
                 id="tspan68"
                 style="font-size:10px;font-variant:normal;font-weight:normal;writing-mode:lr-tb;fill:#000000;fill-opacity:1;fill-rule:nonzero;stroke:none;font-family:Helvetica;-inkscape-font-specification:Helvetica">5</tspan></text>
</g><path
             d="m 3195,261.668 0,35"
             inkscape:connector-curvature="0"
             id="path70"
             style="fill:none;stroke:#000000;stroke-width:5;stroke-linecap:butt;stroke-linejoin:round;stroke-miterlimit:10;stroke-opacity:1;stroke-dasharray:none" /><g
             transform="scale(10,10)"
             id="g72"><text
               transform="matrix(1,0,0,-1,314,14)"
               id="text74"><tspan
                 x="0 5.5599999"
                 y="0"
                 id="tspan76"
                 style="font-size:10px;font-variant:normal;font-weight:normal;writing-mode:lr-tb;fill:#000000;fill-opacity:1;fill-rule:nonzero;stroke:none;font-family:Helvetica;-inkscape-font-specification:Helvetica">10</tspan></text>
</g><path
             d="m 3774.17,261.668 0,35"
             inkscape:connector-curvature="0"
             id="path78"
             style="fill:none;stroke:#000000;stroke-width:5;stroke-linecap:butt;stroke-linejoin:round;stroke-miterlimit:10;stroke-opacity:1;stroke-dasharray:none" /><g
             transform="scale(10,10)"
             id="g80"><text
               transform="matrix(1,0,0,-1,371.917,14)"
               id="text82"><tspan
                 x="0 5.5599999"
                 y="0"
                 id="tspan84"
                 style="font-size:10px;font-variant:normal;font-weight:normal;writing-mode:lr-tb;fill:#000000;fill-opacity:1;fill-rule:nonzero;stroke:none;font-family:Helvetica;-inkscape-font-specification:Helvetica">15</tspan></text>
</g><path
             d="m 301.668,261.668 35,0"
             inkscape:connector-curvature="0"
             id="path86"
             style="fill:none;stroke:#000000;stroke-width:5;stroke-linecap:butt;stroke-linejoin:round;stroke-miterlimit:10;stroke-opacity:1;stroke-dasharray:none" /><g
             transform="scale(10,10)"
             id="g88"><text
               transform="matrix(1,0,0,-1,21.8332,22.5)"
               id="text90"><tspan
                 x="0"
                 y="0"
                 id="tspan92"
                 style="font-size:10px;font-variant:normal;font-weight:normal;writing-mode:lr-tb;fill:#000000;fill-opacity:1;fill-rule:nonzero;stroke:none;font-family:Helvetica;-inkscape-font-specification:Helvetica">0</tspan></text>
</g><path
             d="m 301.668,757.5 35,0"
             inkscape:connector-curvature="0"
             id="path94"
             style="fill:none;stroke:#000000;stroke-width:5;stroke-linecap:butt;stroke-linejoin:round;stroke-miterlimit:10;stroke-opacity:1;stroke-dasharray:none" /><g
             transform="scale(10,10)"
             id="g96"><text
               transform="matrix(1,0,0,-1,21.8332,72.0832)"
               id="text98"><tspan
                 x="0"
                 y="0"
                 id="tspan100"
                 style="font-size:10px;font-variant:normal;font-weight:normal;writing-mode:lr-tb;fill:#000000;fill-opacity:1;fill-rule:nonzero;stroke:none;font-family:Helvetica;-inkscape-font-specification:Helvetica">5</tspan></text>
</g><path
             d="m 331.668,743.332 c 0,-16.566 -13.434,-30 -30,-30 -16.566,0 -30,13.434 -30,30 0,16.566 13.434,30 30,30 16.566,0 30,-13.434 30,-30"
             inkscape:connector-curvature="0"
             id="path102"
             style="fill:#000000;fill-opacity:1;fill-rule:nonzero;stroke:none" /><path
             d="m 447.5,695 c 0,-16.566 -13.434,-30 -30,-30 -16.566,0 -30,13.434 -30,30 0,16.566 13.434,30 30,30 16.566,0 30,-13.434 30,-30"
             inkscape:connector-curvature="0"
             id="path104"
             style="fill:#000000;fill-opacity:1;fill-rule:nonzero;stroke:none" /><path
             d="m 563.332,651.668 c 0,-16.566 -13.434,-30 -30,-30 -16.566,0 -30,13.434 -30,30 0,16.566 13.434,30 30,30 16.566,0 30,-13.434 30,-30"
             inkscape:connector-curvature="0"
             id="path106"
             style="fill:#000000;fill-opacity:1;fill-rule:nonzero;stroke:none" /><path
             d="m 679.168,612.5 c 0,-16.566 -13.434,-30 -30,-30 -16.566,0 -30,13.434 -30,30 0,16.566 13.434,30 30,30 16.566,0 30,-13.434 30,-30"
             inkscape:connector-curvature="0"
             id="path108"
             style="fill:#000000;fill-opacity:1;fill-rule:nonzero;stroke:none" /><path
             d="m 795,577.5 c 0,-16.566 -13.434,-30 -30,-30 -16.566,0 -30,13.434 -30,30 0,16.566 13.434,30 30,30 16.566,0 30,-13.434 30,-30"
             inkscape:connector-curvature="0"
             id="path110"
             style="fill:#000000;fill-opacity:1;fill-rule:nonzero;stroke:none" /><path
             d="m 910.832,545.832 c 0,-16.566 -13.434,-30 -30,-30 -16.566,0 -30,13.434 -30,30 0,16.566 13.434,30 30,30 16.566,0 30,-13.434 30,-30"
             inkscape:connector-curvature="0"
             id="path112"
             style="fill:#000000;fill-opacity:1;fill-rule:nonzero;stroke:none" /><path
             d="m 1026.67,517.5 c 0,-16.566 -13.44,-30 -30.002,-30 -16.566,0 -30,13.434 -30,30 0,16.566 13.434,30 30,30 16.562,0 30.002,-13.434 30.002,-30"
             inkscape:connector-curvature="0"
             id="path114"
             style="fill:#000000;fill-opacity:1;fill-rule:nonzero;stroke:none" /><path
             d="m 1142.5,491.668 c 0,-16.566 -13.43,-30 -30,-30 -16.57,0 -30,13.434 -30,30 0,16.566 13.43,30 30,30 16.57,0 30,-13.434 30,-30"
             inkscape:connector-curvature="0"
             id="path116"
             style="fill:#000000;fill-opacity:1;fill-rule:nonzero;stroke:none" /><path
             d="m 1257.5,469.168 c 0,-16.566 -13.43,-30 -30,-30 -16.57,0 -30,13.434 -30,30 0,16.566 13.43,30 30,30 16.57,0 30,-13.434 30,-30"
             inkscape:connector-curvature="0"
             id="path118"
             style="fill:#000000;fill-opacity:1;fill-rule:nonzero;stroke:none" /><path
             d="m 1373.33,448.332 c 0,-16.566 -13.43,-30 -30,-30 -16.56,0 -30,13.434 -30,30 0,16.566 13.44,30 30,30 16.57,0 30,-13.434 30,-30"
             inkscape:connector-curvature="0"
             id="path120"
             style="fill:#000000;fill-opacity:1;fill-rule:nonzero;stroke:none" /><path
             d="m 1489.17,430 c 0,-16.566 -13.44,-30 -30,-30 -16.57,0 -30,13.434 -30,30 0,16.566 13.43,30 30,30 16.56,0 30,-13.434 30,-30"
             inkscape:connector-curvature="0"
             id="path122"
             style="fill:#000000;fill-opacity:1;fill-rule:nonzero;stroke:none" /><path
             d="m 1605,412.5 c 0,-16.566 -13.43,-30 -30,-30 -16.57,0 -30,13.434 -30,30 0,16.566 13.43,30 30,30 16.57,0 30,-13.434 30,-30"
             inkscape:connector-curvature="0"
             id="path124"
             style="fill:#000000;fill-opacity:1;fill-rule:nonzero;stroke:none" /><path
             d="m 1720.83,397.5 c 0,-16.566 -13.43,-30 -30,-30 -16.56,0 -30,13.434 -30,30 0,16.566 13.44,30 30,30 16.57,0 30,-13.434 30,-30"
             inkscape:connector-curvature="0"
             id="path126"
             style="fill:#000000;fill-opacity:1;fill-rule:nonzero;stroke:none" /><path
             d="m 1836.67,384.168 c 0,-16.566 -13.44,-30 -30,-30 -16.57,0 -30,13.434 -30,30 0,16.566 13.43,30 30,30 16.56,0 30,-13.434 30,-30"
             inkscape:connector-curvature="0"
             id="path128"
             style="fill:#000000;fill-opacity:1;fill-rule:nonzero;stroke:none" /><path
             d="m 1952.5,371.668 c 0,-16.566 -13.43,-30 -30,-30 -16.57,0 -30,13.434 -30,30 0,16.566 13.43,30 30,30 16.57,0 30,-13.434 30,-30"
             inkscape:connector-curvature="0"
             id="path130"
             style="fill:#000000;fill-opacity:1;fill-rule:nonzero;stroke:none" /><path
             d="m 2068.33,360.832 c 0,-16.566 -13.43,-30 -30,-30 -16.56,0 -30,13.434 -30,30 0,16.566 13.44,30 30,30 16.57,0 30,-13.434 30,-30"
             inkscape:connector-curvature="0"
             id="path132"
             style="fill:#000000;fill-opacity:1;fill-rule:nonzero;stroke:none" /><path
             d="m 2183.33,350.832 c 0,-16.566 -13.43,-30 -30,-30 -16.56,0 -30,13.434 -30,30 0,16.566 13.44,30 30,30 16.57,0 30,-13.434 30,-30"
             inkscape:connector-curvature="0"
             id="path134"
             style="fill:#000000;fill-opacity:1;fill-rule:nonzero;stroke:none" /><path
             d="m 2299.17,341.668 c 0,-16.566 -13.44,-30 -30,-30 -16.57,0 -30,13.434 -30,30 0,16.566 13.43,30 30,30 16.56,0 30,-13.434 30,-30"
             inkscape:connector-curvature="0"
             id="path136"
             style="fill:#000000;fill-opacity:1;fill-rule:nonzero;stroke:none" /><path
             d="m 2415,334.168 c 0,-16.566 -13.43,-30 -30,-30 -16.57,0 -30,13.434 -30,30 0,16.566 13.43,30 30,30 16.57,0 30,-13.434 30,-30"
             inkscape:connector-curvature="0"
             id="path138"
             style="fill:#000000;fill-opacity:1;fill-rule:nonzero;stroke:none" /><path
             d="m 2530.83,326.668 c 0,-16.566 -13.43,-30 -30,-30 -16.56,0 -30,13.434 -30,30 0,16.566 13.44,30 30,30 16.57,0 30,-13.434 30,-30"
             inkscape:connector-curvature="0"
             id="path140"
             style="fill:#000000;fill-opacity:1;fill-rule:nonzero;stroke:none" /><path
             d="m 2646.67,320 c 0,-16.566 -13.44,-30 -30,-30 -16.57,0 -30,13.434 -30,30 0,16.566 13.43,30 30,30 16.56,0 30,-13.434 30,-30"
             inkscape:connector-curvature="0"
             id="path142"
             style="fill:#000000;fill-opacity:1;fill-rule:nonzero;stroke:none" /><path
             d="m 2762.5,314.168 c 0,-16.566 -13.43,-30 -30,-30 -16.57,0 -30,13.434 -30,30 0,16.566 13.43,30 30,30 16.57,0 30,-13.434 30,-30"
             inkscape:connector-curvature="0"
             id="path144"
             style="fill:#000000;fill-opacity:1;fill-rule:nonzero;stroke:none" /><path
             d="m 2878.33,309.168 c 0,-16.566 -13.43,-30 -30,-30 -16.56,0 -30,13.434 -30,30 0,16.566 13.44,30 30,30 16.57,0 30,-13.434 30,-30"
             inkscape:connector-curvature="0"
             id="path146"
             style="fill:#000000;fill-opacity:1;fill-rule:nonzero;stroke:none" /><path
             d="m 2993.33,304.168 c 0,-16.566 -13.43,-30 -30,-30 -16.56,0 -30,13.434 -30,30 0,16.566 13.44,30 30,30 16.57,0 30,-13.434 30,-30"
             inkscape:connector-curvature="0"
             id="path148"
             style="fill:#000000;fill-opacity:1;fill-rule:nonzero;stroke:none" /><path
             d="m 3109.17,300 c 0,-16.566 -13.44,-30 -30,-30 -16.57,0 -30,13.434 -30,30 0,16.566 13.43,30 30,30 16.56,0 30,-13.434 30,-30"
             inkscape:connector-curvature="0"
             id="path150"
             style="fill:#000000;fill-opacity:1;fill-rule:nonzero;stroke:none" /><path
             d="m 3225,295.832 c 0,-16.566 -13.43,-30 -30,-30 -16.57,0 -30,13.434 -30,30 0,16.566 13.43,30 30,30 16.57,0 30,-13.434 30,-30"
             inkscape:connector-curvature="0"
             id="path152"
             style="fill:#000000;fill-opacity:1;fill-rule:nonzero;stroke:none" /><path
             d="m 3340.83,292.5 c 0,-16.566 -13.43,-30 -30,-30 -16.56,0 -30,13.434 -30,30 0,16.566 13.44,30 30,30 16.57,0 30,-13.434 30,-30"
             inkscape:connector-curvature="0"
             id="path154"
             style="fill:#000000;fill-opacity:1;fill-rule:nonzero;stroke:none" /><path
             d="m 3456.67,290 c 0,-16.566 -13.44,-30 -30,-30 -16.57,0 -30,13.434 -30,30 0,16.566 13.43,30 30,30 16.56,0 30,-13.434 30,-30"
             inkscape:connector-curvature="0"
             id="path156"
             style="fill:#000000;fill-opacity:1;fill-rule:nonzero;stroke:none" /><path
             d="m 3572.5,286.668 c 0,-16.566 -13.43,-30 -30,-30 -16.57,0 -30,13.434 -30,30 0,16.566 13.43,30 30,30 16.57,0 30,-13.434 30,-30"
             inkscape:connector-curvature="0"
             id="path158"
             style="fill:#000000;fill-opacity:1;fill-rule:nonzero;stroke:none" /><path
             d="m 3688.33,284.168 c 0,-16.566 -13.43,-30 -30,-30 -16.56,0 -30,13.434 -30,30 0,16.566 13.44,30 30,30 16.57,0 30,-13.434 30,-30"
             inkscape:connector-curvature="0"
             id="path160"
             style="fill:#000000;fill-opacity:1;fill-rule:nonzero;stroke:none" /><path
             d="m 3804.17,281.668 c 0,-16.566 -13.44,-30 -30,-30 -16.57,0 -30,13.434 -30,30 0,16.566 13.43,30 30,30 16.56,0 30,-13.434 30,-30"
             inkscape:connector-curvature="0"
             id="path162"
             style="fill:#000000;fill-opacity:1;fill-rule:nonzero;stroke:none" /><path
             d="m 331.668,743.332 c 0,-16.566 -13.434,-30 -30,-30 -16.566,0 -30,13.434 -30,30 0,16.566 13.434,30 30,30 16.566,0 30,-13.434 30,-30"
             inkscape:connector-curvature="0"
             id="path164"
             style="fill:none;stroke:#000000;stroke-width:10;stroke-linecap:butt;stroke-linejoin:round;stroke-miterlimit:10;stroke-opacity:1;stroke-dasharray:none" /><path
             d="m 447.5,695 c 0,-16.566 -13.434,-30 -30,-30 -16.566,0 -30,13.434 -30,30 0,16.566 13.434,30 30,30 16.566,0 30,-13.434 30,-30"
             inkscape:connector-curvature="0"
             id="path166"
             style="fill:none;stroke:#000000;stroke-width:10;stroke-linecap:butt;stroke-linejoin:round;stroke-miterlimit:10;stroke-opacity:1;stroke-dasharray:none" /><path
             d="m 563.332,651.668 c 0,-16.566 -13.434,-30 -30,-30 -16.566,0 -30,13.434 -30,30 0,16.566 13.434,30 30,30 16.566,0 30,-13.434 30,-30"
             inkscape:connector-curvature="0"
             id="path168"
             style="fill:none;stroke:#000000;stroke-width:10;stroke-linecap:butt;stroke-linejoin:round;stroke-miterlimit:10;stroke-opacity:1;stroke-dasharray:none" /><path
             d="m 679.168,612.5 c 0,-16.566 -13.434,-30 -30,-30 -16.566,0 -30,13.434 -30,30 0,16.566 13.434,30 30,30 16.566,0 30,-13.434 30,-30"
             inkscape:connector-curvature="0"
             id="path170"
             style="fill:none;stroke:#000000;stroke-width:10;stroke-linecap:butt;stroke-linejoin:round;stroke-miterlimit:10;stroke-opacity:1;stroke-dasharray:none" /><path
             d="m 795,577.5 c 0,-16.566 -13.434,-30 -30,-30 -16.566,0 -30,13.434 -30,30 0,16.566 13.434,30 30,30 16.566,0 30,-13.434 30,-30"
             inkscape:connector-curvature="0"
             id="path172"
             style="fill:none;stroke:#000000;stroke-width:10;stroke-linecap:butt;stroke-linejoin:round;stroke-miterlimit:10;stroke-opacity:1;stroke-dasharray:none" /><path
             d="m 910.832,545.832 c 0,-16.566 -13.434,-30 -30,-30 -16.566,0 -30,13.434 -30,30 0,16.566 13.434,30 30,30 16.566,0 30,-13.434 30,-30"
             inkscape:connector-curvature="0"
             id="path174"
             style="fill:none;stroke:#000000;stroke-width:10;stroke-linecap:butt;stroke-linejoin:round;stroke-miterlimit:10;stroke-opacity:1;stroke-dasharray:none" /><path
             d="m 1026.67,517.5 c 0,-16.566 -13.44,-30 -30.002,-30 -16.566,0 -30,13.434 -30,30 0,16.566 13.434,30 30,30 16.562,0 30.002,-13.434 30.002,-30"
             inkscape:connector-curvature="0"
             id="path176"
             style="fill:none;stroke:#000000;stroke-width:10;stroke-linecap:butt;stroke-linejoin:round;stroke-miterlimit:10;stroke-opacity:1;stroke-dasharray:none" /><path
             d="m 1142.5,491.668 c 0,-16.566 -13.43,-30 -30,-30 -16.57,0 -30,13.434 -30,30 0,16.566 13.43,30 30,30 16.57,0 30,-13.434 30,-30"
             inkscape:connector-curvature="0"
             id="path178"
             style="fill:none;stroke:#000000;stroke-width:10;stroke-linecap:butt;stroke-linejoin:round;stroke-miterlimit:10;stroke-opacity:1;stroke-dasharray:none" /><path
             d="m 1257.5,469.168 c 0,-16.566 -13.43,-30 -30,-30 -16.57,0 -30,13.434 -30,30 0,16.566 13.43,30 30,30 16.57,0 30,-13.434 30,-30"
             inkscape:connector-curvature="0"
             id="path180"
             style="fill:none;stroke:#000000;stroke-width:10;stroke-linecap:butt;stroke-linejoin:round;stroke-miterlimit:10;stroke-opacity:1;stroke-dasharray:none" /><path
             d="m 1373.33,448.332 c 0,-16.566 -13.43,-30 -30,-30 -16.56,0 -30,13.434 -30,30 0,16.566 13.44,30 30,30 16.57,0 30,-13.434 30,-30"
             inkscape:connector-curvature="0"
             id="path182"
             style="fill:none;stroke:#000000;stroke-width:10;stroke-linecap:butt;stroke-linejoin:round;stroke-miterlimit:10;stroke-opacity:1;stroke-dasharray:none" /><path
             d="m 1489.17,430 c 0,-16.566 -13.44,-30 -30,-30 -16.57,0 -30,13.434 -30,30 0,16.566 13.43,30 30,30 16.56,0 30,-13.434 30,-30"
             inkscape:connector-curvature="0"
             id="path184"
             style="fill:none;stroke:#000000;stroke-width:10;stroke-linecap:butt;stroke-linejoin:round;stroke-miterlimit:10;stroke-opacity:1;stroke-dasharray:none" /><path
             d="m 1605,412.5 c 0,-16.566 -13.43,-30 -30,-30 -16.57,0 -30,13.434 -30,30 0,16.566 13.43,30 30,30 16.57,0 30,-13.434 30,-30"
             inkscape:connector-curvature="0"
             id="path186"
             style="fill:none;stroke:#000000;stroke-width:10;stroke-linecap:butt;stroke-linejoin:round;stroke-miterlimit:10;stroke-opacity:1;stroke-dasharray:none" /><path
             d="m 1720.83,397.5 c 0,-16.566 -13.43,-30 -30,-30 -16.56,0 -30,13.434 -30,30 0,16.566 13.44,30 30,30 16.57,0 30,-13.434 30,-30"
             inkscape:connector-curvature="0"
             id="path188"
             style="fill:none;stroke:#000000;stroke-width:10;stroke-linecap:butt;stroke-linejoin:round;stroke-miterlimit:10;stroke-opacity:1;stroke-dasharray:none" /><path
             d="m 1836.67,384.168 c 0,-16.566 -13.44,-30 -30,-30 -16.57,0 -30,13.434 -30,30 0,16.566 13.43,30 30,30 16.56,0 30,-13.434 30,-30"
             inkscape:connector-curvature="0"
             id="path190"
             style="fill:none;stroke:#000000;stroke-width:10;stroke-linecap:butt;stroke-linejoin:round;stroke-miterlimit:10;stroke-opacity:1;stroke-dasharray:none" /><path
             d="m 1952.5,371.668 c 0,-16.566 -13.43,-30 -30,-30 -16.57,0 -30,13.434 -30,30 0,16.566 13.43,30 30,30 16.57,0 30,-13.434 30,-30"
             inkscape:connector-curvature="0"
             id="path192"
             style="fill:none;stroke:#000000;stroke-width:10;stroke-linecap:butt;stroke-linejoin:round;stroke-miterlimit:10;stroke-opacity:1;stroke-dasharray:none" /><path
             d="m 2068.33,360.832 c 0,-16.566 -13.43,-30 -30,-30 -16.56,0 -30,13.434 -30,30 0,16.566 13.44,30 30,30 16.57,0 30,-13.434 30,-30"
             inkscape:connector-curvature="0"
             id="path194"
             style="fill:none;stroke:#000000;stroke-width:10;stroke-linecap:butt;stroke-linejoin:round;stroke-miterlimit:10;stroke-opacity:1;stroke-dasharray:none" /><path
             d="m 2183.33,350.832 c 0,-16.566 -13.43,-30 -30,-30 -16.56,0 -30,13.434 -30,30 0,16.566 13.44,30 30,30 16.57,0 30,-13.434 30,-30"
             inkscape:connector-curvature="0"
             id="path196"
             style="fill:none;stroke:#000000;stroke-width:10;stroke-linecap:butt;stroke-linejoin:round;stroke-miterlimit:10;stroke-opacity:1;stroke-dasharray:none" /><path
             d="m 2299.17,341.668 c 0,-16.566 -13.44,-30 -30,-30 -16.57,0 -30,13.434 -30,30 0,16.566 13.43,30 30,30 16.56,0 30,-13.434 30,-30"
             inkscape:connector-curvature="0"
             id="path198"
             style="fill:none;stroke:#000000;stroke-width:10;stroke-linecap:butt;stroke-linejoin:round;stroke-miterlimit:10;stroke-opacity:1;stroke-dasharray:none" /><path
             d="m 2415,334.168 c 0,-16.566 -13.43,-30 -30,-30 -16.57,0 -30,13.434 -30,30 0,16.566 13.43,30 30,30 16.57,0 30,-13.434 30,-30"
             inkscape:connector-curvature="0"
             id="path200"
             style="fill:none;stroke:#000000;stroke-width:10;stroke-linecap:butt;stroke-linejoin:round;stroke-miterlimit:10;stroke-opacity:1;stroke-dasharray:none" /><path
             d="m 2530.83,326.668 c 0,-16.566 -13.43,-30 -30,-30 -16.56,0 -30,13.434 -30,30 0,16.566 13.44,30 30,30 16.57,0 30,-13.434 30,-30"
             inkscape:connector-curvature="0"
             id="path202"
             style="fill:none;stroke:#000000;stroke-width:10;stroke-linecap:butt;stroke-linejoin:round;stroke-miterlimit:10;stroke-opacity:1;stroke-dasharray:none" /><path
             d="m 2646.67,320 c 0,-16.566 -13.44,-30 -30,-30 -16.57,0 -30,13.434 -30,30 0,16.566 13.43,30 30,30 16.56,0 30,-13.434 30,-30"
             inkscape:connector-curvature="0"
             id="path204"
             style="fill:none;stroke:#000000;stroke-width:10;stroke-linecap:butt;stroke-linejoin:round;stroke-miterlimit:10;stroke-opacity:1;stroke-dasharray:none" /><path
             d="m 2762.5,314.168 c 0,-16.566 -13.43,-30 -30,-30 -16.57,0 -30,13.434 -30,30 0,16.566 13.43,30 30,30 16.57,0 30,-13.434 30,-30"
             inkscape:connector-curvature="0"
             id="path206"
             style="fill:none;stroke:#000000;stroke-width:10;stroke-linecap:butt;stroke-linejoin:round;stroke-miterlimit:10;stroke-opacity:1;stroke-dasharray:none" /><path
             d="m 2878.33,309.168 c 0,-16.566 -13.43,-30 -30,-30 -16.56,0 -30,13.434 -30,30 0,16.566 13.44,30 30,30 16.57,0 30,-13.434 30,-30"
             inkscape:connector-curvature="0"
             id="path208"
             style="fill:none;stroke:#000000;stroke-width:10;stroke-linecap:butt;stroke-linejoin:round;stroke-miterlimit:10;stroke-opacity:1;stroke-dasharray:none" /><path
             d="m 2993.33,304.168 c 0,-16.566 -13.43,-30 -30,-30 -16.56,0 -30,13.434 -30,30 0,16.566 13.44,30 30,30 16.57,0 30,-13.434 30,-30"
             inkscape:connector-curvature="0"
             id="path210"
             style="fill:none;stroke:#000000;stroke-width:10;stroke-linecap:butt;stroke-linejoin:round;stroke-miterlimit:10;stroke-opacity:1;stroke-dasharray:none" /><path
             d="m 3109.17,300 c 0,-16.566 -13.44,-30 -30,-30 -16.57,0 -30,13.434 -30,30 0,16.566 13.43,30 30,30 16.56,0 30,-13.434 30,-30"
             inkscape:connector-curvature="0"
             id="path212"
             style="fill:none;stroke:#000000;stroke-width:10;stroke-linecap:butt;stroke-linejoin:round;stroke-miterlimit:10;stroke-opacity:1;stroke-dasharray:none" /><path
             d="m 3225,295.832 c 0,-16.566 -13.43,-30 -30,-30 -16.57,0 -30,13.434 -30,30 0,16.566 13.43,30 30,30 16.57,0 30,-13.434 30,-30"
             inkscape:connector-curvature="0"
             id="path214"
             style="fill:none;stroke:#000000;stroke-width:10;stroke-linecap:butt;stroke-linejoin:round;stroke-miterlimit:10;stroke-opacity:1;stroke-dasharray:none" /><path
             d="m 3340.83,292.5 c 0,-16.566 -13.43,-30 -30,-30 -16.56,0 -30,13.434 -30,30 0,16.566 13.44,30 30,30 16.57,0 30,-13.434 30,-30"
             inkscape:connector-curvature="0"
             id="path216"
             style="fill:none;stroke:#000000;stroke-width:10;stroke-linecap:butt;stroke-linejoin:round;stroke-miterlimit:10;stroke-opacity:1;stroke-dasharray:none" /><path
             d="m 3456.67,290 c 0,-16.566 -13.44,-30 -30,-30 -16.57,0 -30,13.434 -30,30 0,16.566 13.43,30 30,30 16.56,0 30,-13.434 30,-30"
             inkscape:connector-curvature="0"
             id="path218"
             style="fill:none;stroke:#000000;stroke-width:10;stroke-linecap:butt;stroke-linejoin:round;stroke-miterlimit:10;stroke-opacity:1;stroke-dasharray:none" /><path
             d="m 3572.5,286.668 c 0,-16.566 -13.43,-30 -30,-30 -16.57,0 -30,13.434 -30,30 0,16.566 13.43,30 30,30 16.57,0 30,-13.434 30,-30"
             inkscape:connector-curvature="0"
             id="path220"
             style="fill:none;stroke:#000000;stroke-width:10;stroke-linecap:butt;stroke-linejoin:round;stroke-miterlimit:10;stroke-opacity:1;stroke-dasharray:none" /><path
             d="m 3688.33,284.168 c 0,-16.566 -13.43,-30 -30,-30 -16.56,0 -30,13.434 -30,30 0,16.566 13.44,30 30,30 16.57,0 30,-13.434 30,-30"
             inkscape:connector-curvature="0"
             id="path222"
             style="fill:none;stroke:#000000;stroke-width:10;stroke-linecap:butt;stroke-linejoin:round;stroke-miterlimit:10;stroke-opacity:1;stroke-dasharray:none" /><path
             d="m 3804.17,281.668 c 0,-16.566 -13.44,-30 -30,-30 -16.57,0 -30,13.434 -30,30 0,16.566 13.43,30 30,30 16.56,0 30,-13.434 30,-30"
             inkscape:connector-curvature="0"
             id="path224"
             style="fill:none;stroke:#000000;stroke-width:10;stroke-linecap:butt;stroke-linejoin:round;stroke-miterlimit:10;stroke-opacity:1;stroke-dasharray:none" /></g></g><g
         id="g226"><g
           clip-path="url(#clipPath230)"
           id="g228"><path
             d="m 301.668,261.668 0,481.664"
             inkscape:connector-curvature="0"
             id="path234"
             style="fill:none;stroke:#000000;stroke-width:10;stroke-linecap:butt;stroke-linejoin:round;stroke-miterlimit:10;stroke-opacity:1;stroke-dasharray:none" /><path
             d="M 417.5,261.668 417.5,695"
             inkscape:connector-curvature="0"
             id="path236"
             style="fill:none;stroke:#000000;stroke-width:10;stroke-linecap:butt;stroke-linejoin:round;stroke-miterlimit:10;stroke-opacity:1;stroke-dasharray:none" /><path
             d="m 533.332,261.668 0,390"
             inkscape:connector-curvature="0"
             id="path238"
             style="fill:none;stroke:#000000;stroke-width:10;stroke-linecap:butt;stroke-linejoin:round;stroke-miterlimit:10;stroke-opacity:1;stroke-dasharray:none" /><path
             d="m 649.168,261.668 0,350.832"
             inkscape:connector-curvature="0"
             id="path240"
             style="fill:none;stroke:#000000;stroke-width:10;stroke-linecap:butt;stroke-linejoin:round;stroke-miterlimit:10;stroke-opacity:1;stroke-dasharray:none" /><path
             d="M 765,261.668 765,577.5"
             inkscape:connector-curvature="0"
             id="path242"
             style="fill:none;stroke:#000000;stroke-width:10;stroke-linecap:butt;stroke-linejoin:round;stroke-miterlimit:10;stroke-opacity:1;stroke-dasharray:none" /><path
             d="m 880.832,261.668 0,284.164"
             inkscape:connector-curvature="0"
             id="path244"
             style="fill:none;stroke:#000000;stroke-width:10;stroke-linecap:butt;stroke-linejoin:round;stroke-miterlimit:10;stroke-opacity:1;stroke-dasharray:none" /><path
             d="m 996.668,261.668 0,255.832"
             inkscape:connector-curvature="0"
             id="path246"
             style="fill:none;stroke:#000000;stroke-width:10;stroke-linecap:butt;stroke-linejoin:round;stroke-miterlimit:10;stroke-opacity:1;stroke-dasharray:none" /><path
             d="m 1112.5,261.668 0,230"
             inkscape:connector-curvature="0"
             id="path248"
             style="fill:none;stroke:#000000;stroke-width:10;stroke-linecap:butt;stroke-linejoin:round;stroke-miterlimit:10;stroke-opacity:1;stroke-dasharray:none" /><path
             d="m 1227.5,261.668 0,207.5"
             inkscape:connector-curvature="0"
             id="path250"
             style="fill:none;stroke:#000000;stroke-width:10;stroke-linecap:butt;stroke-linejoin:round;stroke-miterlimit:10;stroke-opacity:1;stroke-dasharray:none" /><path
             d="m 1343.33,261.668 0,186.664"
             inkscape:connector-curvature="0"
             id="path252"
             style="fill:none;stroke:#000000;stroke-width:10;stroke-linecap:butt;stroke-linejoin:round;stroke-miterlimit:10;stroke-opacity:1;stroke-dasharray:none" /><path
             d="m 1459.17,261.668 0,168.332"
             inkscape:connector-curvature="0"
             id="path254"
             style="fill:none;stroke:#000000;stroke-width:10;stroke-linecap:butt;stroke-linejoin:round;stroke-miterlimit:10;stroke-opacity:1;stroke-dasharray:none" /><path
             d="m 1575,261.668 0,150.832"
             inkscape:connector-curvature="0"
             id="path256"
             style="fill:none;stroke:#000000;stroke-width:10;stroke-linecap:butt;stroke-linejoin:round;stroke-miterlimit:10;stroke-opacity:1;stroke-dasharray:none" /><path
             d="m 1690.83,261.668 0,135.832"
             inkscape:connector-curvature="0"
             id="path258"
             style="fill:none;stroke:#000000;stroke-width:10;stroke-linecap:butt;stroke-linejoin:round;stroke-miterlimit:10;stroke-opacity:1;stroke-dasharray:none" /><path
             d="m 1806.67,261.668 0,122.5"
             inkscape:connector-curvature="0"
             id="path260"
             style="fill:none;stroke:#000000;stroke-width:10;stroke-linecap:butt;stroke-linejoin:round;stroke-miterlimit:10;stroke-opacity:1;stroke-dasharray:none" /><path
             d="m 1922.5,261.668 0,110"
             inkscape:connector-curvature="0"
             id="path262"
             style="fill:none;stroke:#000000;stroke-width:10;stroke-linecap:butt;stroke-linejoin:round;stroke-miterlimit:10;stroke-opacity:1;stroke-dasharray:none" /><path
             d="m 2038.33,261.668 0,99.164"
             inkscape:connector-curvature="0"
             id="path264"
             style="fill:none;stroke:#000000;stroke-width:10;stroke-linecap:butt;stroke-linejoin:round;stroke-miterlimit:10;stroke-opacity:1;stroke-dasharray:none" /><path
             d="m 2153.33,261.668 0,89.164"
             inkscape:connector-curvature="0"
             id="path266"
             style="fill:none;stroke:#000000;stroke-width:10;stroke-linecap:butt;stroke-linejoin:round;stroke-miterlimit:10;stroke-opacity:1;stroke-dasharray:none" /><path
             d="m 2269.17,261.668 0,80"
             inkscape:connector-curvature="0"
             id="path268"
             style="fill:none;stroke:#000000;stroke-width:10;stroke-linecap:butt;stroke-linejoin:round;stroke-miterlimit:10;stroke-opacity:1;stroke-dasharray:none" /><path
             d="m 2385,261.668 0,72.5"
             inkscape:connector-curvature="0"
             id="path270"
             style="fill:none;stroke:#000000;stroke-width:10;stroke-linecap:butt;stroke-linejoin:round;stroke-miterlimit:10;stroke-opacity:1;stroke-dasharray:none" /><path
             d="m 2500.83,261.668 0,65"
             inkscape:connector-curvature="0"
             id="path272"
             style="fill:none;stroke:#000000;stroke-width:10;stroke-linecap:butt;stroke-linejoin:round;stroke-miterlimit:10;stroke-opacity:1;stroke-dasharray:none" /><path
             d="m 2616.67,261.668 0,58.332"
             inkscape:connector-curvature="0"
             id="path274"
             style="fill:none;stroke:#000000;stroke-width:10;stroke-linecap:butt;stroke-linejoin:round;stroke-miterlimit:10;stroke-opacity:1;stroke-dasharray:none" /><path
             d="m 2732.5,261.668 0,52.5"
             inkscape:connector-curvature="0"
             id="path276"
             style="fill:none;stroke:#000000;stroke-width:10;stroke-linecap:butt;stroke-linejoin:round;stroke-miterlimit:10;stroke-opacity:1;stroke-dasharray:none" /><path
             d="m 2848.33,261.668 0,47.5"
             inkscape:connector-curvature="0"
             id="path278"
             style="fill:none;stroke:#000000;stroke-width:10;stroke-linecap:butt;stroke-linejoin:round;stroke-miterlimit:10;stroke-opacity:1;stroke-dasharray:none" /><path
             d="m 2963.33,261.668 0,42.5"
             inkscape:connector-curvature="0"
             id="path280"
             style="fill:none;stroke:#000000;stroke-width:10;stroke-linecap:butt;stroke-linejoin:round;stroke-miterlimit:10;stroke-opacity:1;stroke-dasharray:none" /><path
             d="m 3079.17,261.668 0,38.332"
             inkscape:connector-curvature="0"
             id="path282"
             style="fill:none;stroke:#000000;stroke-width:10;stroke-linecap:butt;stroke-linejoin:round;stroke-miterlimit:10;stroke-opacity:1;stroke-dasharray:none" /><path
             d="m 3195,261.668 0,34.164"
             inkscape:connector-curvature="0"
             id="path284"
             style="fill:none;stroke:#000000;stroke-width:10;stroke-linecap:butt;stroke-linejoin:round;stroke-miterlimit:10;stroke-opacity:1;stroke-dasharray:none" /><path
             d="m 3310.83,261.668 0,30.832"
             inkscape:connector-curvature="0"
             id="path286"
             style="fill:none;stroke:#000000;stroke-width:10;stroke-linecap:butt;stroke-linejoin:round;stroke-miterlimit:10;stroke-opacity:1;stroke-dasharray:none" /><path
             d="m 3426.67,261.668 0,28.332"
             inkscape:connector-curvature="0"
             id="path288"
             style="fill:none;stroke:#000000;stroke-width:10;stroke-linecap:butt;stroke-linejoin:round;stroke-miterlimit:10;stroke-opacity:1;stroke-dasharray:none" /><path
             d="m 3542.5,261.668 0,25"
             inkscape:connector-curvature="0"
             id="path290"
             style="fill:none;stroke:#000000;stroke-width:10;stroke-linecap:butt;stroke-linejoin:round;stroke-miterlimit:10;stroke-opacity:1;stroke-dasharray:none" /><path
             d="m 3658.33,261.668 0,22.5"
             inkscape:connector-curvature="0"
             id="path292"
             style="fill:none;stroke:#000000;stroke-width:10;stroke-linecap:butt;stroke-linejoin:round;stroke-miterlimit:10;stroke-opacity:1;stroke-dasharray:none" /><path
             d="m 3774.17,261.668 0,20"
             inkscape:connector-curvature="0"
             id="path294"
             style="fill:none;stroke:#000000;stroke-width:10;stroke-linecap:butt;stroke-linejoin:round;stroke-miterlimit:10;stroke-opacity:1;stroke-dasharray:none" /><path
             d="m 301.668,261.668 3472.502,0"
             inkscape:connector-curvature="0"
             id="path296"
             style="fill:none;stroke:#000000;stroke-width:5;stroke-linecap:butt;stroke-linejoin:round;stroke-miterlimit:10;stroke-opacity:1;stroke-dasharray:none" /></g></g><g
         id="g298"><g
           clip-path="url(#clipPath302)"
           id="g300"><g
             transform="scale(10,10)"
             id="g306"><text
               transform="matrix(1,0,0,-1,199.5,3.3332)"
               id="text308"><tspan
                 x="0"
                 y="0"
                 id="tspan310"
                 style="font-size:14px;font-variant:normal;font-weight:normal;writing-mode:lr-tb;fill:#000000;fill-opacity:1;fill-rule:nonzero;stroke:none;font-family:CMMI10;-inkscape-font-specification:CMMI10">n</tspan></text>
<text
               transform="matrix(0,1,1,0,13.6668,39.4168)"
               id="text312"><tspan
                 x="0"
                 y="0"
                 id="tspan314"
                 style="font-size:14px;font-variant:normal;font-weight:normal;writing-mode:lr-tb;fill:#000000;fill-opacity:1;fill-rule:nonzero;stroke:none;font-family:CMMI10;-inkscape-font-specification:CMMI10">r</tspan></text>
<text
               transform="matrix(0,1,1,0,13.6668,46.9168)"
               id="text316"><tspan
                 x="0"
                 y="0"
                 id="tspan318"
                 style="font-size:14px;font-variant:normal;font-weight:normal;writing-mode:lr-tb;fill:#000000;fill-opacity:1;fill-rule:nonzero;stroke:none;font-family:CMR10;-inkscape-font-specification:CMR10">[</tspan></text>
<text
               transform="matrix(0,1,1,0,13.6668,51.6668)"
               id="text320"><tspan
                 x="0"
                 y="0"
                 id="tspan322"
                 style="font-size:14px;font-variant:normal;font-weight:normal;writing-mode:lr-tb;fill:#000000;fill-opacity:1;fill-rule:nonzero;stroke:none;font-family:CMMI10;-inkscape-font-specification:CMMI10">n</tspan></text>
<text
               transform="matrix(0,1,1,0,13.6668,61.25)"
               id="text324"><tspan
                 x="0"
                 y="0"
                 id="tspan326"
                 style="font-size:14px;font-variant:normal;font-weight:normal;writing-mode:lr-tb;fill:#000000;fill-opacity:1;fill-rule:nonzero;stroke:none;font-family:CMR10;-inkscape-font-specification:CMR10">]</tspan></text>
</g></g></g></g></g></svg>