<?xml version="1.0" encoding="UTF-8" standalone="no"?>
<!-- Created with Inkscape (http://www.inkscape.org/) -->

<svg
   xmlns:dc="http://purl.org/dc/elements/1.1/"
   xmlns:cc="http://creativecommons.org/ns#"
   xmlns:rdf="http://www.w3.org/1999/02/22-rdf-syntax-ns#"
   xmlns:svg="http://www.w3.org/2000/svg"
   xmlns="http://www.w3.org/2000/svg"
   xmlns:inkscape="http://www.inkscape.org/namespaces/inkscape"
   version="1.1"
   width="437.5"
   height="122.5"
   id="svg2"
   xml:space="preserve"><metadata
     id="metadata8"><rdf:RDF><cc:Work
         rdf:about=""><dc:format>image/svg+xml</dc:format><dc:type
           rdf:resource="http://purl.org/dc/dcmitype/StillImage" /></cc:Work></rdf:RDF></metadata><defs
     id="defs6"><clipPath
       id="clipPath18"><path
         d="m 3.33203,9.16797 3496.66997,0 0,970.832 -3496.66997,0 0,-970.832 z"
         inkscape:connector-curvature="0"
         id="path20" /></clipPath><clipPath
       id="clipPath238"><path
         d="m 145,723.332 3255.83,0 0,-465.832 -3255.83,0 0,465.832 z"
         inkscape:connector-curvature="0"
         id="path240" /></clipPath><clipPath
       id="clipPath310"><path
         d="M 3,9 3,980 3500,980 3500,9 3,9 z"
         inkscape:connector-curvature="0"
         id="path312" /></clipPath></defs><g
     transform="matrix(1.25,0,0,-1.25,0,122.5)"
     id="g10"><g
       transform="scale(0.1,0.1)"
       id="g12"><g
         id="g14"><g
           clip-path="url(#clipPath18)"
           id="g16"><path
             d="m 145.832,258.332 3254.17,0 0,465 -3254.17,0 0,-465 z"
             inkscape:connector-curvature="0"
             id="path22"
             style="fill:#ffffff;fill-opacity:1;fill-rule:evenodd;stroke:none" /><path
             d="m 145.832,258.332 0,465 3254.168,0 0,-465 -3254.168,0"
             inkscape:connector-curvature="0"
             id="path24"
             style="fill:none;stroke:#ffffff;stroke-width:5;stroke-linecap:butt;stroke-linejoin:round;stroke-miterlimit:10;stroke-opacity:1;stroke-dasharray:none" /><path
             d="m 145.832,258.332 3254.168,0"
             inkscape:connector-curvature="0"
             id="path26"
             style="fill:none;stroke:#000000;stroke-width:5;stroke-linecap:butt;stroke-linejoin:round;stroke-miterlimit:10;stroke-opacity:1;stroke-dasharray:none" /><path
             d="m 145.832,258.332 0,465"
             inkscape:connector-curvature="0"
             id="path28"
             style="fill:none;stroke:#000000;stroke-width:5;stroke-linecap:butt;stroke-linejoin:round;stroke-miterlimit:10;stroke-opacity:1;stroke-dasharray:none" /><path
             d="m 145.832,258.332 0,32.5"
             inkscape:connector-curvature="0"
             id="path30"
             style="fill:none;stroke:#000000;stroke-width:5;stroke-linecap:butt;stroke-linejoin:round;stroke-miterlimit:10;stroke-opacity:1;stroke-dasharray:none" /><g
             transform="scale(10,10)"
             id="g32"><text
               transform="matrix(1,0,0,-1,3.25,13.75)"
               id="text34"><tspan
                 x="0 5.8400002 11.4"
                 y="0"
                 id="tspan36"
                 style="font-size:10px;font-variant:normal;font-weight:normal;writing-mode:lr-tb;fill:#000000;fill-opacity:1;fill-rule:nonzero;stroke:none;font-family:Helvetica;-inkscape-font-specification:Helvetica">−15</tspan></text>
</g><path
             d="m 687.5,258.332 0,32.5"
             inkscape:connector-curvature="0"
             id="path38"
             style="fill:none;stroke:#000000;stroke-width:5;stroke-linecap:butt;stroke-linejoin:round;stroke-miterlimit:10;stroke-opacity:1;stroke-dasharray:none" /><g
             transform="scale(10,10)"
             id="g40"><text
               transform="matrix(1,0,0,-1,57.4168,13.75)"
               id="text42"><tspan
                 x="0 5.8400002 11.4"
                 y="0"
                 id="tspan44"
                 style="font-size:10px;font-variant:normal;font-weight:normal;writing-mode:lr-tb;fill:#000000;fill-opacity:1;fill-rule:nonzero;stroke:none;font-family:Helvetica;-inkscape-font-specification:Helvetica">−10</tspan></text>
</g><path
             d="m 1230,258.332 0,32.5"
             inkscape:connector-curvature="0"
             id="path46"
             style="fill:none;stroke:#000000;stroke-width:5;stroke-linecap:butt;stroke-linejoin:round;stroke-miterlimit:10;stroke-opacity:1;stroke-dasharray:none" /><g
             transform="scale(10,10)"
             id="g48"><text
               transform="matrix(1,0,0,-1,114.417,13.75)"
               id="text50"><tspan
                 x="0 5.8400002"
                 y="0"
                 id="tspan52"
                 style="font-size:10px;font-variant:normal;font-weight:normal;writing-mode:lr-tb;fill:#000000;fill-opacity:1;fill-rule:nonzero;stroke:none;font-family:Helvetica;-inkscape-font-specification:Helvetica">−5</tspan></text>
</g><path
             d="m 1772.5,258.332 0,32.5"
             inkscape:connector-curvature="0"
             id="path54"
             style="fill:none;stroke:#000000;stroke-width:5;stroke-linecap:butt;stroke-linejoin:round;stroke-miterlimit:10;stroke-opacity:1;stroke-dasharray:none" /><g
             transform="scale(10,10)"
             id="g56"><text
               transform="matrix(1,0,0,-1,174.5,13.75)"
               id="text58"><tspan
                 x="0"
                 y="0"
                 id="tspan60"
                 style="font-size:10px;font-variant:normal;font-weight:normal;writing-mode:lr-tb;fill:#000000;fill-opacity:1;fill-rule:nonzero;stroke:none;font-family:Helvetica;-inkscape-font-specification:Helvetica">0</tspan></text>
</g><path
             d="m 2315,258.332 0,32.5"
             inkscape:connector-curvature="0"
             id="path62"
             style="fill:none;stroke:#000000;stroke-width:5;stroke-linecap:butt;stroke-linejoin:round;stroke-miterlimit:10;stroke-opacity:1;stroke-dasharray:none" /><g
             transform="scale(10,10)"
             id="g64"><text
               transform="matrix(1,0,0,-1,228.75,13.75)"
               id="text66"><tspan
                 x="0"
                 y="0"
                 id="tspan68"
                 style="font-size:10px;font-variant:normal;font-weight:normal;writing-mode:lr-tb;fill:#000000;fill-opacity:1;fill-rule:nonzero;stroke:none;font-family:Helvetica;-inkscape-font-specification:Helvetica">5</tspan></text>
</g><path
             d="m 2857.5,258.332 0,32.5"
             inkscape:connector-curvature="0"
             id="path70"
             style="fill:none;stroke:#000000;stroke-width:5;stroke-linecap:butt;stroke-linejoin:round;stroke-miterlimit:10;stroke-opacity:1;stroke-dasharray:none" /><g
             transform="scale(10,10)"
             id="g72"><text
               transform="matrix(1,0,0,-1,280.25,13.75)"
               id="text74"><tspan
                 x="0 5.5599999"
                 y="0"
                 id="tspan76"
                 style="font-size:10px;font-variant:normal;font-weight:normal;writing-mode:lr-tb;fill:#000000;fill-opacity:1;fill-rule:nonzero;stroke:none;font-family:Helvetica;-inkscape-font-specification:Helvetica">10</tspan></text>
</g><path
             d="m 3400,258.332 0,32.5"
             inkscape:connector-curvature="0"
             id="path78"
             style="fill:none;stroke:#000000;stroke-width:5;stroke-linecap:butt;stroke-linejoin:round;stroke-miterlimit:10;stroke-opacity:1;stroke-dasharray:none" /><g
             transform="scale(10,10)"
             id="g80"><text
               transform="matrix(1,0,0,-1,334.5,13.75)"
               id="text82"><tspan
                 x="0 5.5599999"
                 y="0"
                 id="tspan84"
                 style="font-size:10px;font-variant:normal;font-weight:normal;writing-mode:lr-tb;fill:#000000;fill-opacity:1;fill-rule:nonzero;stroke:none;font-family:Helvetica;-inkscape-font-specification:Helvetica">15</tspan></text>
</g><path
             d="m 145.832,258.332 32.5,0"
             inkscape:connector-curvature="0"
             id="path86"
             style="fill:none;stroke:#000000;stroke-width:5;stroke-linecap:butt;stroke-linejoin:round;stroke-miterlimit:10;stroke-opacity:1;stroke-dasharray:none" /><g
             transform="scale(10,10)"
             id="g88"><text
               transform="matrix(1,0,0,-1,0.333203,22.1668)"
               id="text90"><tspan
                 x="0 5.8400002"
                 y="0"
                 id="tspan92"
                 style="font-size:10px;font-variant:normal;font-weight:normal;writing-mode:lr-tb;fill:#000000;fill-opacity:1;fill-rule:nonzero;stroke:none;font-family:Helvetica;-inkscape-font-specification:Helvetica">−1</tspan></text>
</g><path
             d="m 145.832,490.832 32.5,0"
             inkscape:connector-curvature="0"
             id="path94"
             style="fill:none;stroke:#000000;stroke-width:5;stroke-linecap:butt;stroke-linejoin:round;stroke-miterlimit:10;stroke-opacity:1;stroke-dasharray:none" /><g
             transform="scale(10,10)"
             id="g96"><text
               transform="matrix(1,0,0,-1,6.1668,45.4168)"
               id="text98"><tspan
                 x="0"
                 y="0"
                 id="tspan100"
                 style="font-size:10px;font-variant:normal;font-weight:normal;writing-mode:lr-tb;fill:#000000;fill-opacity:1;fill-rule:nonzero;stroke:none;font-family:Helvetica;-inkscape-font-specification:Helvetica">0</tspan></text>
</g><path
             d="m 145.832,723.332 32.5,0"
             inkscape:connector-curvature="0"
             id="path102"
             style="fill:none;stroke:#000000;stroke-width:5;stroke-linecap:butt;stroke-linejoin:round;stroke-miterlimit:10;stroke-opacity:1;stroke-dasharray:none" /><g
             transform="scale(10,10)"
             id="g104"><text
               transform="matrix(1,0,0,-1,6.1668,68.6668)"
               id="text106"><tspan
                 x="0"
                 y="0"
                 id="tspan108"
                 style="font-size:10px;font-variant:normal;font-weight:normal;writing-mode:lr-tb;fill:#000000;fill-opacity:1;fill-rule:nonzero;stroke:none;font-family:Helvetica;-inkscape-font-specification:Helvetica">1</tspan></text>
</g><path
             d="m 175.832,490.832 c 0,-16.566 -13.434,-30 -30,-30 -16.566,0 -30,13.434 -30,30 0,16.566 13.434,30 30,30 16.566,0 30,-13.434 30,-30"
             inkscape:connector-curvature="0"
             id="path110"
             style="fill:#000000;fill-opacity:1;fill-rule:nonzero;stroke:none" /><path
             d="m 284.168,491.668 c 0,-16.566 -13.434,-30 -30,-30 -16.566,0 -30,13.434 -30,30 0,16.566 13.434,30 30,30 16.566,0 30,-13.434 30,-30"
             inkscape:connector-curvature="0"
             id="path112"
             style="fill:#000000;fill-opacity:1;fill-rule:nonzero;stroke:none" /><path
             d="m 392.5,494.168 c 0,-16.566 -13.434,-30 -30,-30 -16.566,0 -30,13.434 -30,30 0,16.566 13.434,30 30,30 16.566,0 30,-13.434 30,-30"
             inkscape:connector-curvature="0"
             id="path114"
             style="fill:#000000;fill-opacity:1;fill-rule:nonzero;stroke:none" /><path
             d="m 500.832,499.168 c 0,-16.566 -13.434,-30 -30,-30 -16.566,0 -30,13.434 -30,30 0,16.566 13.434,30 30,30 16.566,0 30,-13.434 30,-30"
             inkscape:connector-curvature="0"
             id="path116"
             style="fill:#000000;fill-opacity:1;fill-rule:nonzero;stroke:none" /><path
             d="m 609.168,505 c 0,-16.566 -13.434,-30 -30,-30 -16.566,0 -30,13.434 -30,30 0,16.566 13.434,30 30,30 16.566,0 30,-13.434 30,-30"
             inkscape:connector-curvature="0"
             id="path118"
             style="fill:#000000;fill-opacity:1;fill-rule:nonzero;stroke:none" /><path
             d="m 717.5,513.332 c 0,-16.566 -13.434,-30 -30,-30 -16.566,0 -30,13.434 -30,30 0,16.566 13.434,30 30,30 16.566,0 30,-13.434 30,-30"
             inkscape:connector-curvature="0"
             id="path120"
             style="fill:#000000;fill-opacity:1;fill-rule:nonzero;stroke:none" /><path
             d="m 826.668,523.332 c 0,-16.566 -13.434,-30 -30,-30 -16.566,0 -30,13.434 -30,30 0,16.566 13.434,30 30,30 16.566,0 30,-13.434 30,-30"
             inkscape:connector-curvature="0"
             id="path122"
             style="fill:#000000;fill-opacity:1;fill-rule:nonzero;stroke:none" /><path
             d="m 935,535 c 0,-16.566 -13.434,-30 -30,-30 -16.566,0 -30,13.434 -30,30 0,16.566 13.434,30 30,30 16.566,0 30,-13.434 30,-30"
             inkscape:connector-curvature="0"
             id="path124"
             style="fill:#000000;fill-opacity:1;fill-rule:nonzero;stroke:none" /><path
             d="m 1043.33,549.168 c 0,-16.566 -13.43,-30 -30,-30 -16.564,0 -29.998,13.434 -29.998,30 0,16.566 13.434,30 29.998,30 16.57,0 30,-13.434 30,-30"
             inkscape:connector-curvature="0"
             id="path126"
             style="fill:#000000;fill-opacity:1;fill-rule:nonzero;stroke:none" /><path
             d="m 1151.67,564.168 c 0,-16.566 -13.44,-30 -30,-30 -16.57,0 -30,13.434 -30,30 0,16.566 13.43,30 30,30 16.56,0 30,-13.434 30,-30"
             inkscape:connector-curvature="0"
             id="path128"
             style="fill:#000000;fill-opacity:1;fill-rule:nonzero;stroke:none" /><path
             d="m 1260,581.668 c 0,-16.566 -13.43,-30 -30,-30 -16.57,0 -30,13.434 -30,30 0,16.566 13.43,30 30,30 16.57,0 30,-13.434 30,-30"
             inkscape:connector-curvature="0"
             id="path130"
             style="fill:#000000;fill-opacity:1;fill-rule:nonzero;stroke:none" /><path
             d="m 1368.33,600.832 c 0,-16.566 -13.43,-30 -30,-30 -16.56,0 -30,13.434 -30,30 0,16.566 13.44,30 30,30 16.57,0 30,-13.434 30,-30"
             inkscape:connector-curvature="0"
             id="path132"
             style="fill:#000000;fill-opacity:1;fill-rule:nonzero;stroke:none" /><path
             d="m 1477.5,621.668 c 0,-16.566 -13.43,-30 -30,-30 -16.57,0 -30,13.434 -30,30 0,16.566 13.43,30 30,30 16.57,0 30,-13.434 30,-30"
             inkscape:connector-curvature="0"
             id="path134"
             style="fill:#000000;fill-opacity:1;fill-rule:nonzero;stroke:none" /><path
             d="m 1585.83,644.168 c 0,-16.566 -13.43,-30 -30,-30 -16.56,0 -30,13.434 -30,30 0,16.566 13.44,30 30,30 16.57,0 30,-13.434 30,-30"
             inkscape:connector-curvature="0"
             id="path136"
             style="fill:#000000;fill-opacity:1;fill-rule:nonzero;stroke:none" /><path
             d="m 1694.17,669.168 c 0,-16.566 -13.44,-30 -30,-30 -16.57,0 -30,13.434 -30,30 0,16.566 13.43,30 30,30 16.56,0 30,-13.434 30,-30"
             inkscape:connector-curvature="0"
             id="path138"
             style="fill:#000000;fill-opacity:1;fill-rule:nonzero;stroke:none" /><path
             d="m 1802.5,695 c 0,-16.566 -13.43,-30 -30,-30 -16.57,0 -30,13.434 -30,30 0,16.566 13.43,30 30,30 16.57,0 30,-13.434 30,-30"
             inkscape:connector-curvature="0"
             id="path140"
             style="fill:#000000;fill-opacity:1;fill-rule:nonzero;stroke:none" /><path
             d="m 1910.83,723.332 c 0,-16.566 -13.43,-30 -30,-30 -16.56,0 -30,13.434 -30,30 0,16.566 13.44,30 30,30 16.57,0 30,-13.434 30,-30"
             inkscape:connector-curvature="0"
             id="path142"
             style="fill:#000000;fill-opacity:1;fill-rule:nonzero;stroke:none" /><path
             d="m 2019.17,723.332 c 0,-16.566 -13.44,-30 -30,-30 -16.57,0 -30,13.434 -30,30 0,16.566 13.43,30 30,30 16.56,0 30,-13.434 30,-30"
             inkscape:connector-curvature="0"
             id="path144"
             style="fill:#000000;fill-opacity:1;fill-rule:nonzero;stroke:none" /><path
             d="m 2128.33,722.5 c 0,-16.566 -13.43,-30 -30,-30 -16.56,0 -30,13.434 -30,30 0,16.566 13.44,30 30,30 16.57,0 30,-13.434 30,-30"
             inkscape:connector-curvature="0"
             id="path146"
             style="fill:#000000;fill-opacity:1;fill-rule:nonzero;stroke:none" /><path
             d="m 2236.67,720 c 0,-16.566 -13.44,-30 -30,-30 -16.57,0 -30,13.434 -30,30 0,16.566 13.43,30 30,30 16.56,0 30,-13.434 30,-30"
             inkscape:connector-curvature="0"
             id="path148"
             style="fill:#000000;fill-opacity:1;fill-rule:nonzero;stroke:none" /><path
             d="m 2345,712.5 c 0,-16.566 -13.43,-30 -30,-30 -16.57,0 -30,13.434 -30,30 0,16.566 13.43,30 30,30 16.57,0 30,-13.434 30,-30"
             inkscape:connector-curvature="0"
             id="path150"
             style="fill:#000000;fill-opacity:1;fill-rule:nonzero;stroke:none" /><path
             d="m 2453.33,696.668 c 0,-16.566 -13.43,-30 -30,-30 -16.56,0 -30,13.434 -30,30 0,16.566 13.44,30 30,30 16.57,0 30,-13.434 30,-30"
             inkscape:connector-curvature="0"
             id="path152"
             style="fill:#000000;fill-opacity:1;fill-rule:nonzero;stroke:none" /><path
             d="m 2561.67,669.168 c 0,-16.566 -13.44,-30 -30,-30 -16.57,0 -30,13.434 -30,30 0,16.566 13.43,30 30,30 16.56,0 30,-13.434 30,-30"
             inkscape:connector-curvature="0"
             id="path154"
             style="fill:#000000;fill-opacity:1;fill-rule:nonzero;stroke:none" /><path
             d="m 2670,626.668 c 0,-16.566 -13.43,-30 -30,-30 -16.57,0 -30,13.434 -30,30 0,16.566 13.43,30 30,30 16.57,0 30,-13.434 30,-30"
             inkscape:connector-curvature="0"
             id="path156"
             style="fill:#000000;fill-opacity:1;fill-rule:nonzero;stroke:none" /><path
             d="m 2779.17,567.5 c 0,-16.566 -13.44,-30 -30,-30 -16.57,0 -30,13.434 -30,30 0,16.566 13.43,30 30,30 16.56,0 30,-13.434 30,-30"
             inkscape:connector-curvature="0"
             id="path158"
             style="fill:#000000;fill-opacity:1;fill-rule:nonzero;stroke:none" /><path
             d="m 2887.5,493.332 c 0,-16.566 -13.43,-30 -30,-30 -16.57,0 -30,13.434 -30,30 0,16.566 13.43,30 30,30 16.57,0 30,-13.434 30,-30"
             inkscape:connector-curvature="0"
             id="path160"
             style="fill:#000000;fill-opacity:1;fill-rule:nonzero;stroke:none" /><path
             d="m 2995.83,410 c 0,-16.566 -13.43,-30 -30,-30 -16.56,0 -30,13.434 -30,30 0,16.566 13.44,30 30,30 16.57,0 30,-13.434 30,-30"
             inkscape:connector-curvature="0"
             id="path162"
             style="fill:#000000;fill-opacity:1;fill-rule:nonzero;stroke:none" /><path
             d="m 3104.17,330.832 c 0,-16.566 -13.44,-30 -30,-30 -16.57,0 -30,13.434 -30,30 0,16.566 13.43,30 30,30 16.56,0 30,-13.434 30,-30"
             inkscape:connector-curvature="0"
             id="path164"
             style="fill:#000000;fill-opacity:1;fill-rule:nonzero;stroke:none" /><path
             d="m 3212.5,274.168 c 0,-16.566 -13.43,-30 -30,-30 -16.57,0 -30,13.434 -30,30 0,16.566 13.43,30 30,30 16.57,0 30,-13.434 30,-30"
             inkscape:connector-curvature="0"
             id="path166"
             style="fill:#000000;fill-opacity:1;fill-rule:nonzero;stroke:none" /><path
             d="m 3320.83,260 c 0,-16.566 -13.43,-30 -30,-30 -16.56,0 -30,13.434 -30,30 0,16.566 13.44,30 30,30 16.57,0 30,-13.434 30,-30"
             inkscape:connector-curvature="0"
             id="path168"
             style="fill:#000000;fill-opacity:1;fill-rule:nonzero;stroke:none" /><path
             d="m 3430,304.168 c 0,-16.566 -13.43,-30 -30,-30 -16.57,0 -30,13.434 -30,30 0,16.566 13.43,30 30,30 16.57,0 30,-13.434 30,-30"
             inkscape:connector-curvature="0"
             id="path170"
             style="fill:#000000;fill-opacity:1;fill-rule:nonzero;stroke:none" /><path
             d="m 175.832,490.832 c 0,-16.566 -13.434,-30 -30,-30 -16.566,0 -30,13.434 -30,30 0,16.566 13.434,30 30,30 16.566,0 30,-13.434 30,-30"
             inkscape:connector-curvature="0"
             id="path172"
             style="fill:none;stroke:#000000;stroke-width:10;stroke-linecap:butt;stroke-linejoin:round;stroke-miterlimit:10;stroke-opacity:1;stroke-dasharray:none" /><path
             d="m 284.168,491.668 c 0,-16.566 -13.434,-30 -30,-30 -16.566,0 -30,13.434 -30,30 0,16.566 13.434,30 30,30 16.566,0 30,-13.434 30,-30"
             inkscape:connector-curvature="0"
             id="path174"
             style="fill:none;stroke:#000000;stroke-width:10;stroke-linecap:butt;stroke-linejoin:round;stroke-miterlimit:10;stroke-opacity:1;stroke-dasharray:none" /><path
             d="m 392.5,494.168 c 0,-16.566 -13.434,-30 -30,-30 -16.566,0 -30,13.434 -30,30 0,16.566 13.434,30 30,30 16.566,0 30,-13.434 30,-30"
             inkscape:connector-curvature="0"
             id="path176"
             style="fill:none;stroke:#000000;stroke-width:10;stroke-linecap:butt;stroke-linejoin:round;stroke-miterlimit:10;stroke-opacity:1;stroke-dasharray:none" /><path
             d="m 500.832,499.168 c 0,-16.566 -13.434,-30 -30,-30 -16.566,0 -30,13.434 -30,30 0,16.566 13.434,30 30,30 16.566,0 30,-13.434 30,-30"
             inkscape:connector-curvature="0"
             id="path178"
             style="fill:none;stroke:#000000;stroke-width:10;stroke-linecap:butt;stroke-linejoin:round;stroke-miterlimit:10;stroke-opacity:1;stroke-dasharray:none" /><path
             d="m 609.168,505 c 0,-16.566 -13.434,-30 -30,-30 -16.566,0 -30,13.434 -30,30 0,16.566 13.434,30 30,30 16.566,0 30,-13.434 30,-30"
             inkscape:connector-curvature="0"
             id="path180"
             style="fill:none;stroke:#000000;stroke-width:10;stroke-linecap:butt;stroke-linejoin:round;stroke-miterlimit:10;stroke-opacity:1;stroke-dasharray:none" /><path
             d="m 717.5,513.332 c 0,-16.566 -13.434,-30 -30,-30 -16.566,0 -30,13.434 -30,30 0,16.566 13.434,30 30,30 16.566,0 30,-13.434 30,-30"
             inkscape:connector-curvature="0"
             id="path182"
             style="fill:none;stroke:#000000;stroke-width:10;stroke-linecap:butt;stroke-linejoin:round;stroke-miterlimit:10;stroke-opacity:1;stroke-dasharray:none" /><path
             d="m 826.668,523.332 c 0,-16.566 -13.434,-30 -30,-30 -16.566,0 -30,13.434 -30,30 0,16.566 13.434,30 30,30 16.566,0 30,-13.434 30,-30"
             inkscape:connector-curvature="0"
             id="path184"
             style="fill:none;stroke:#000000;stroke-width:10;stroke-linecap:butt;stroke-linejoin:round;stroke-miterlimit:10;stroke-opacity:1;stroke-dasharray:none" /><path
             d="m 935,535 c 0,-16.566 -13.434,-30 -30,-30 -16.566,0 -30,13.434 -30,30 0,16.566 13.434,30 30,30 16.566,0 30,-13.434 30,-30"
             inkscape:connector-curvature="0"
             id="path186"
             style="fill:none;stroke:#000000;stroke-width:10;stroke-linecap:butt;stroke-linejoin:round;stroke-miterlimit:10;stroke-opacity:1;stroke-dasharray:none" /><path
             d="m 1043.33,549.168 c 0,-16.566 -13.43,-30 -30,-30 -16.564,0 -29.998,13.434 -29.998,30 0,16.566 13.434,30 29.998,30 16.57,0 30,-13.434 30,-30"
             inkscape:connector-curvature="0"
             id="path188"
             style="fill:none;stroke:#000000;stroke-width:10;stroke-linecap:butt;stroke-linejoin:round;stroke-miterlimit:10;stroke-opacity:1;stroke-dasharray:none" /><path
             d="m 1151.67,564.168 c 0,-16.566 -13.44,-30 -30,-30 -16.57,0 -30,13.434 -30,30 0,16.566 13.43,30 30,30 16.56,0 30,-13.434 30,-30"
             inkscape:connector-curvature="0"
             id="path190"
             style="fill:none;stroke:#000000;stroke-width:10;stroke-linecap:butt;stroke-linejoin:round;stroke-miterlimit:10;stroke-opacity:1;stroke-dasharray:none" /><path
             d="m 1260,581.668 c 0,-16.566 -13.43,-30 -30,-30 -16.57,0 -30,13.434 -30,30 0,16.566 13.43,30 30,30 16.57,0 30,-13.434 30,-30"
             inkscape:connector-curvature="0"
             id="path192"
             style="fill:none;stroke:#000000;stroke-width:10;stroke-linecap:butt;stroke-linejoin:round;stroke-miterlimit:10;stroke-opacity:1;stroke-dasharray:none" /><path
             d="m 1368.33,600.832 c 0,-16.566 -13.43,-30 -30,-30 -16.56,0 -30,13.434 -30,30 0,16.566 13.44,30 30,30 16.57,0 30,-13.434 30,-30"
             inkscape:connector-curvature="0"
             id="path194"
             style="fill:none;stroke:#000000;stroke-width:10;stroke-linecap:butt;stroke-linejoin:round;stroke-miterlimit:10;stroke-opacity:1;stroke-dasharray:none" /><path
             d="m 1477.5,621.668 c 0,-16.566 -13.43,-30 -30,-30 -16.57,0 -30,13.434 -30,30 0,16.566 13.43,30 30,30 16.57,0 30,-13.434 30,-30"
             inkscape:connector-curvature="0"
             id="path196"
             style="fill:none;stroke:#000000;stroke-width:10;stroke-linecap:butt;stroke-linejoin:round;stroke-miterlimit:10;stroke-opacity:1;stroke-dasharray:none" /><path
             d="m 1585.83,644.168 c 0,-16.566 -13.43,-30 -30,-30 -16.56,0 -30,13.434 -30,30 0,16.566 13.44,30 30,30 16.57,0 30,-13.434 30,-30"
             inkscape:connector-curvature="0"
             id="path198"
             style="fill:none;stroke:#000000;stroke-width:10;stroke-linecap:butt;stroke-linejoin:round;stroke-miterlimit:10;stroke-opacity:1;stroke-dasharray:none" /><path
             d="m 1694.17,669.168 c 0,-16.566 -13.44,-30 -30,-30 -16.57,0 -30,13.434 -30,30 0,16.566 13.43,30 30,30 16.56,0 30,-13.434 30,-30"
             inkscape:connector-curvature="0"
             id="path200"
             style="fill:none;stroke:#000000;stroke-width:10;stroke-linecap:butt;stroke-linejoin:round;stroke-miterlimit:10;stroke-opacity:1;stroke-dasharray:none" /><path
             d="m 1802.5,695 c 0,-16.566 -13.43,-30 -30,-30 -16.57,0 -30,13.434 -30,30 0,16.566 13.43,30 30,30 16.57,0 30,-13.434 30,-30"
             inkscape:connector-curvature="0"
             id="path202"
             style="fill:none;stroke:#000000;stroke-width:10;stroke-linecap:butt;stroke-linejoin:round;stroke-miterlimit:10;stroke-opacity:1;stroke-dasharray:none" /><path
             d="m 1910.83,723.332 c 0,-16.566 -13.43,-30 -30,-30 -16.56,0 -30,13.434 -30,30 0,16.566 13.44,30 30,30 16.57,0 30,-13.434 30,-30"
             inkscape:connector-curvature="0"
             id="path204"
             style="fill:none;stroke:#000000;stroke-width:10;stroke-linecap:butt;stroke-linejoin:round;stroke-miterlimit:10;stroke-opacity:1;stroke-dasharray:none" /><path
             d="m 2019.17,723.332 c 0,-16.566 -13.44,-30 -30,-30 -16.57,0 -30,13.434 -30,30 0,16.566 13.43,30 30,30 16.56,0 30,-13.434 30,-30"
             inkscape:connector-curvature="0"
             id="path206"
             style="fill:none;stroke:#000000;stroke-width:10;stroke-linecap:butt;stroke-linejoin:round;stroke-miterlimit:10;stroke-opacity:1;stroke-dasharray:none" /><path
             d="m 2128.33,722.5 c 0,-16.566 -13.43,-30 -30,-30 -16.56,0 -30,13.434 -30,30 0,16.566 13.44,30 30,30 16.57,0 30,-13.434 30,-30"
             inkscape:connector-curvature="0"
             id="path208"
             style="fill:none;stroke:#000000;stroke-width:10;stroke-linecap:butt;stroke-linejoin:round;stroke-miterlimit:10;stroke-opacity:1;stroke-dasharray:none" /><path
             d="m 2236.67,720 c 0,-16.566 -13.44,-30 -30,-30 -16.57,0 -30,13.434 -30,30 0,16.566 13.43,30 30,30 16.56,0 30,-13.434 30,-30"
             inkscape:connector-curvature="0"
             id="path210"
             style="fill:none;stroke:#000000;stroke-width:10;stroke-linecap:butt;stroke-linejoin:round;stroke-miterlimit:10;stroke-opacity:1;stroke-dasharray:none" /><path
             d="m 2345,712.5 c 0,-16.566 -13.43,-30 -30,-30 -16.57,0 -30,13.434 -30,30 0,16.566 13.43,30 30,30 16.57,0 30,-13.434 30,-30"
             inkscape:connector-curvature="0"
             id="path212"
             style="fill:none;stroke:#000000;stroke-width:10;stroke-linecap:butt;stroke-linejoin:round;stroke-miterlimit:10;stroke-opacity:1;stroke-dasharray:none" /><path
             d="m 2453.33,696.668 c 0,-16.566 -13.43,-30 -30,-30 -16.56,0 -30,13.434 -30,30 0,16.566 13.44,30 30,30 16.57,0 30,-13.434 30,-30"
             inkscape:connector-curvature="0"
             id="path214"
             style="fill:none;stroke:#000000;stroke-width:10;stroke-linecap:butt;stroke-linejoin:round;stroke-miterlimit:10;stroke-opacity:1;stroke-dasharray:none" /><path
             d="m 2561.67,669.168 c 0,-16.566 -13.44,-30 -30,-30 -16.57,0 -30,13.434 -30,30 0,16.566 13.43,30 30,30 16.56,0 30,-13.434 30,-30"
             inkscape:connector-curvature="0"
             id="path216"
             style="fill:none;stroke:#000000;stroke-width:10;stroke-linecap:butt;stroke-linejoin:round;stroke-miterlimit:10;stroke-opacity:1;stroke-dasharray:none" /><path
             d="m 2670,626.668 c 0,-16.566 -13.43,-30 -30,-30 -16.57,0 -30,13.434 -30,30 0,16.566 13.43,30 30,30 16.57,0 30,-13.434 30,-30"
             inkscape:connector-curvature="0"
             id="path218"
             style="fill:none;stroke:#000000;stroke-width:10;stroke-linecap:butt;stroke-linejoin:round;stroke-miterlimit:10;stroke-opacity:1;stroke-dasharray:none" /><path
             d="m 2779.17,567.5 c 0,-16.566 -13.44,-30 -30,-30 -16.57,0 -30,13.434 -30,30 0,16.566 13.43,30 30,30 16.56,0 30,-13.434 30,-30"
             inkscape:connector-curvature="0"
             id="path220"
             style="fill:none;stroke:#000000;stroke-width:10;stroke-linecap:butt;stroke-linejoin:round;stroke-miterlimit:10;stroke-opacity:1;stroke-dasharray:none" /><path
             d="m 2887.5,493.332 c 0,-16.566 -13.43,-30 -30,-30 -16.57,0 -30,13.434 -30,30 0,16.566 13.43,30 30,30 16.57,0 30,-13.434 30,-30"
             inkscape:connector-curvature="0"
             id="path222"
             style="fill:none;stroke:#000000;stroke-width:10;stroke-linecap:butt;stroke-linejoin:round;stroke-miterlimit:10;stroke-opacity:1;stroke-dasharray:none" /><path
             d="m 2995.83,410 c 0,-16.566 -13.43,-30 -30,-30 -16.56,0 -30,13.434 -30,30 0,16.566 13.44,30 30,30 16.57,0 30,-13.434 30,-30"
             inkscape:connector-curvature="0"
             id="path224"
             style="fill:none;stroke:#000000;stroke-width:10;stroke-linecap:butt;stroke-linejoin:round;stroke-miterlimit:10;stroke-opacity:1;stroke-dasharray:none" /><path
             d="m 3104.17,330.832 c 0,-16.566 -13.44,-30 -30,-30 -16.57,0 -30,13.434 -30,30 0,16.566 13.43,30 30,30 16.56,0 30,-13.434 30,-30"
             inkscape:connector-curvature="0"
             id="path226"
             style="fill:none;stroke:#000000;stroke-width:10;stroke-linecap:butt;stroke-linejoin:round;stroke-miterlimit:10;stroke-opacity:1;stroke-dasharray:none" /><path
             d="m 3212.5,274.168 c 0,-16.566 -13.43,-30 -30,-30 -16.57,0 -30,13.434 -30,30 0,16.566 13.43,30 30,30 16.57,0 30,-13.434 30,-30"
             inkscape:connector-curvature="0"
             id="path228"
             style="fill:none;stroke:#000000;stroke-width:10;stroke-linecap:butt;stroke-linejoin:round;stroke-miterlimit:10;stroke-opacity:1;stroke-dasharray:none" /><path
             d="m 3320.83,260 c 0,-16.566 -13.43,-30 -30,-30 -16.56,0 -30,13.434 -30,30 0,16.566 13.44,30 30,30 16.57,0 30,-13.434 30,-30"
             inkscape:connector-curvature="0"
             id="path230"
             style="fill:none;stroke:#000000;stroke-width:10;stroke-linecap:butt;stroke-linejoin:round;stroke-miterlimit:10;stroke-opacity:1;stroke-dasharray:none" /><path
             d="m 3430,304.168 c 0,-16.566 -13.43,-30 -30,-30 -16.57,0 -30,13.434 -30,30 0,16.566 13.43,30 30,30 16.57,0 30,-13.434 30,-30"
             inkscape:connector-curvature="0"
             id="path232"
             style="fill:none;stroke:#000000;stroke-width:10;stroke-linecap:butt;stroke-linejoin:round;stroke-miterlimit:10;stroke-opacity:1;stroke-dasharray:none" /></g></g><g
         id="g234"><g
           clip-path="url(#clipPath238)"
           id="g236"><path
             d="m 150.832,490.832 c 0,-2.758 -2.242,-5 -5,-5 -2.758,0 -5,2.242 -5,5 0,2.758 2.242,5 5,5 2.758,0 5,-2.242 5,-5"
             inkscape:connector-curvature="0"
             id="path242"
             style="fill:#000000;fill-opacity:1;fill-rule:nonzero;stroke:none" /><path
             d="m 254.168,490.832 0,0.836"
             inkscape:connector-curvature="0"
             id="path244"
             style="fill:none;stroke:#000000;stroke-width:10;stroke-linecap:butt;stroke-linejoin:round;stroke-miterlimit:10;stroke-opacity:1;stroke-dasharray:none" /><path
             d="m 362.5,490.832 0,3.336"
             inkscape:connector-curvature="0"
             id="path246"
             style="fill:none;stroke:#000000;stroke-width:10;stroke-linecap:butt;stroke-linejoin:round;stroke-miterlimit:10;stroke-opacity:1;stroke-dasharray:none" /><path
             d="m 470.832,490.832 0,8.336"
             inkscape:connector-curvature="0"
             id="path248"
             style="fill:none;stroke:#000000;stroke-width:10;stroke-linecap:butt;stroke-linejoin:round;stroke-miterlimit:10;stroke-opacity:1;stroke-dasharray:none" /><path
             d="m 579.168,490.832 0,14.168"
             inkscape:connector-curvature="0"
             id="path250"
             style="fill:none;stroke:#000000;stroke-width:10;stroke-linecap:butt;stroke-linejoin:round;stroke-miterlimit:10;stroke-opacity:1;stroke-dasharray:none" /><path
             d="m 687.5,490.832 0,22.5"
             inkscape:connector-curvature="0"
             id="path252"
             style="fill:none;stroke:#000000;stroke-width:10;stroke-linecap:butt;stroke-linejoin:round;stroke-miterlimit:10;stroke-opacity:1;stroke-dasharray:none" /><path
             d="m 796.668,490.832 0,32.5"
             inkscape:connector-curvature="0"
             id="path254"
             style="fill:none;stroke:#000000;stroke-width:10;stroke-linecap:butt;stroke-linejoin:round;stroke-miterlimit:10;stroke-opacity:1;stroke-dasharray:none" /><path
             d="M 905,490.832 905,535"
             inkscape:connector-curvature="0"
             id="path256"
             style="fill:none;stroke:#000000;stroke-width:10;stroke-linecap:butt;stroke-linejoin:round;stroke-miterlimit:10;stroke-opacity:1;stroke-dasharray:none" /><path
             d="m 1013.33,490.832 0,58.336"
             inkscape:connector-curvature="0"
             id="path258"
             style="fill:none;stroke:#000000;stroke-width:10;stroke-linecap:butt;stroke-linejoin:round;stroke-miterlimit:10;stroke-opacity:1;stroke-dasharray:none" /><path
             d="m 1121.67,490.832 0,73.336"
             inkscape:connector-curvature="0"
             id="path260"
             style="fill:none;stroke:#000000;stroke-width:10;stroke-linecap:butt;stroke-linejoin:round;stroke-miterlimit:10;stroke-opacity:1;stroke-dasharray:none" /><path
             d="m 1230,490.832 0,90.836"
             inkscape:connector-curvature="0"
             id="path262"
             style="fill:none;stroke:#000000;stroke-width:10;stroke-linecap:butt;stroke-linejoin:round;stroke-miterlimit:10;stroke-opacity:1;stroke-dasharray:none" /><path
             d="m 1338.33,490.832 0,110"
             inkscape:connector-curvature="0"
             id="path264"
             style="fill:none;stroke:#000000;stroke-width:10;stroke-linecap:butt;stroke-linejoin:round;stroke-miterlimit:10;stroke-opacity:1;stroke-dasharray:none" /><path
             d="m 1447.5,490.832 0,130.836"
             inkscape:connector-curvature="0"
             id="path266"
             style="fill:none;stroke:#000000;stroke-width:10;stroke-linecap:butt;stroke-linejoin:round;stroke-miterlimit:10;stroke-opacity:1;stroke-dasharray:none" /><path
             d="m 1555.83,490.832 0,153.336"
             inkscape:connector-curvature="0"
             id="path268"
             style="fill:none;stroke:#000000;stroke-width:10;stroke-linecap:butt;stroke-linejoin:round;stroke-miterlimit:10;stroke-opacity:1;stroke-dasharray:none" /><path
             d="m 1664.17,490.832 0,178.336"
             inkscape:connector-curvature="0"
             id="path270"
             style="fill:none;stroke:#000000;stroke-width:10;stroke-linecap:butt;stroke-linejoin:round;stroke-miterlimit:10;stroke-opacity:1;stroke-dasharray:none" /><path
             d="m 1772.5,490.832 0,204.168"
             inkscape:connector-curvature="0"
             id="path272"
             style="fill:none;stroke:#000000;stroke-width:10;stroke-linecap:butt;stroke-linejoin:round;stroke-miterlimit:10;stroke-opacity:1;stroke-dasharray:none" /><path
             d="m 1880.83,490.832 0,232.5"
             inkscape:connector-curvature="0"
             id="path274"
             style="fill:none;stroke:#000000;stroke-width:10;stroke-linecap:butt;stroke-linejoin:round;stroke-miterlimit:10;stroke-opacity:1;stroke-dasharray:none" /><path
             d="m 1989.17,490.832 0,232.5"
             inkscape:connector-curvature="0"
             id="path276"
             style="fill:none;stroke:#000000;stroke-width:10;stroke-linecap:butt;stroke-linejoin:round;stroke-miterlimit:10;stroke-opacity:1;stroke-dasharray:none" /><path
             d="m 2098.33,490.832 0,231.668"
             inkscape:connector-curvature="0"
             id="path278"
             style="fill:none;stroke:#000000;stroke-width:10;stroke-linecap:butt;stroke-linejoin:round;stroke-miterlimit:10;stroke-opacity:1;stroke-dasharray:none" /><path
             d="m 2206.67,490.832 0,229.168"
             inkscape:connector-curvature="0"
             id="path280"
             style="fill:none;stroke:#000000;stroke-width:10;stroke-linecap:butt;stroke-linejoin:round;stroke-miterlimit:10;stroke-opacity:1;stroke-dasharray:none" /><path
             d="m 2315,490.832 0,221.668"
             inkscape:connector-curvature="0"
             id="path282"
             style="fill:none;stroke:#000000;stroke-width:10;stroke-linecap:butt;stroke-linejoin:round;stroke-miterlimit:10;stroke-opacity:1;stroke-dasharray:none" /><path
             d="m 2423.33,490.832 0,205.836"
             inkscape:connector-curvature="0"
             id="path284"
             style="fill:none;stroke:#000000;stroke-width:10;stroke-linecap:butt;stroke-linejoin:round;stroke-miterlimit:10;stroke-opacity:1;stroke-dasharray:none" /><path
             d="m 2531.67,490.832 0,178.336"
             inkscape:connector-curvature="0"
             id="path286"
             style="fill:none;stroke:#000000;stroke-width:10;stroke-linecap:butt;stroke-linejoin:round;stroke-miterlimit:10;stroke-opacity:1;stroke-dasharray:none" /><path
             d="m 2640,490.832 0,135.836"
             inkscape:connector-curvature="0"
             id="path288"
             style="fill:none;stroke:#000000;stroke-width:10;stroke-linecap:butt;stroke-linejoin:round;stroke-miterlimit:10;stroke-opacity:1;stroke-dasharray:none" /><path
             d="m 2749.17,490.832 0,76.668"
             inkscape:connector-curvature="0"
             id="path290"
             style="fill:none;stroke:#000000;stroke-width:10;stroke-linecap:butt;stroke-linejoin:round;stroke-miterlimit:10;stroke-opacity:1;stroke-dasharray:none" /><path
             d="m 2857.5,490.832 0,2.5"
             inkscape:connector-curvature="0"
             id="path292"
             style="fill:none;stroke:#000000;stroke-width:10;stroke-linecap:butt;stroke-linejoin:round;stroke-miterlimit:10;stroke-opacity:1;stroke-dasharray:none" /><path
             d="m 2965.83,490.832 0,-80.832"
             inkscape:connector-curvature="0"
             id="path294"
             style="fill:none;stroke:#000000;stroke-width:10;stroke-linecap:butt;stroke-linejoin:round;stroke-miterlimit:10;stroke-opacity:1;stroke-dasharray:none" /><path
             d="m 3074.17,490.832 0,-160"
             inkscape:connector-curvature="0"
             id="path296"
             style="fill:none;stroke:#000000;stroke-width:10;stroke-linecap:butt;stroke-linejoin:round;stroke-miterlimit:10;stroke-opacity:1;stroke-dasharray:none" /><path
             d="m 3182.5,490.832 0,-216.664"
             inkscape:connector-curvature="0"
             id="path298"
             style="fill:none;stroke:#000000;stroke-width:10;stroke-linecap:butt;stroke-linejoin:round;stroke-miterlimit:10;stroke-opacity:1;stroke-dasharray:none" /><path
             d="m 3290.83,490.832 0,-230.832"
             inkscape:connector-curvature="0"
             id="path300"
             style="fill:none;stroke:#000000;stroke-width:10;stroke-linecap:butt;stroke-linejoin:round;stroke-miterlimit:10;stroke-opacity:1;stroke-dasharray:none" /><path
             d="m 3400,490.832 0,-186.664"
             inkscape:connector-curvature="0"
             id="path302"
             style="fill:none;stroke:#000000;stroke-width:10;stroke-linecap:butt;stroke-linejoin:round;stroke-miterlimit:10;stroke-opacity:1;stroke-dasharray:none" /><path
             d="m 145.832,490.832 3254.168,0"
             inkscape:connector-curvature="0"
             id="path304"
             style="fill:none;stroke:#000000;stroke-width:5;stroke-linecap:butt;stroke-linejoin:round;stroke-miterlimit:10;stroke-opacity:1;stroke-dasharray:none" /></g></g><g
         id="g306"><g
           clip-path="url(#clipPath310)"
           id="g308"><g
             transform="scale(10,10)"
             id="g314"><text
               transform="matrix(1,0,0,-1,165.083,81.5)"
               id="text316"><tspan
                 x="0"
                 y="0"
                 id="tspan318"
                 style="font-size:14px;font-variant:normal;font-weight:normal;writing-mode:lr-tb;fill:#000000;fill-opacity:1;fill-rule:nonzero;stroke:none;font-family:cmmi10;-inkscape-font-specification:cmmi10">x</tspan></text>
<text
               transform="matrix(1,0,0,-1,173.333,81.5)"
               id="text320"><tspan
                 x="0"
                 y="0"
                 id="tspan322"
                 style="font-size:14px;font-variant:normal;font-weight:normal;writing-mode:lr-tb;fill:#000000;fill-opacity:1;fill-rule:nonzero;stroke:none;font-family:cmr10;-inkscape-font-specification:cmr10">[</tspan></text>
<text
               transform="matrix(1,0,0,-1,177.083,81.5)"
               id="text324"><tspan
                 x="0"
                 y="0"
                 id="tspan326"
                 style="font-size:14px;font-variant:normal;font-weight:normal;writing-mode:lr-tb;fill:#000000;fill-opacity:1;fill-rule:nonzero;stroke:none;font-family:cmmi10;-inkscape-font-specification:cmmi10">n</tspan></text>
<text
               transform="matrix(1,0,0,-1,185.333,81.5)"
               id="text328"><tspan
                 x="0"
                 y="0"
                 id="tspan330"
                 style="font-size:14px;font-variant:normal;font-weight:normal;writing-mode:lr-tb;fill:#000000;fill-opacity:1;fill-rule:nonzero;stroke:none;font-family:cmr10;-inkscape-font-specification:cmr10">]</tspan></text>
<text
               transform="matrix(1,0,0,-1,172.9166,3.0832)"
               id="text332"><tspan
                 x="0"
                 y="0"
                 id="tspan334"
                 style="font-size:14px;font-variant:normal;font-weight:normal;writing-mode:lr-tb;fill:#000000;fill-opacity:1;fill-rule:nonzero;stroke:none;font-family:cmmi10;-inkscape-font-specification:cmmi10">n</tspan></text>
</g></g></g></g></g></svg>
