<?xml version="1.0" encoding="UTF-8" standalone="no"?>
<!-- Created with Inkscape (http://www.inkscape.org/) -->

<svg
   xmlns:dc="http://purl.org/dc/elements/1.1/"
   xmlns:cc="http://creativecommons.org/ns#"
   xmlns:rdf="http://www.w3.org/1999/02/22-rdf-syntax-ns#"
   xmlns:svg="http://www.w3.org/2000/svg"
   xmlns="http://www.w3.org/2000/svg"
   xmlns:inkscape="http://www.inkscape.org/namespaces/inkscape"
   version="1.1"
   width="420"
   height="71.25"
   id="svg2"
   xml:space="preserve"><metadata
     id="metadata8"><rdf:RDF><cc:Work
         rdf:about=""><dc:format>image/svg+xml</dc:format><dc:type
           rdf:resource="http://purl.org/dc/dcmitype/StillImage" /></cc:Work></rdf:RDF></metadata><defs
     id="defs6"><clipPath
       id="clipPath18"><path
         d="m 5,7.5 3355,0 0,562.5 L 5,570 5,7.5 z"
         inkscape:connector-curvature="0"
         id="path20" /></clipPath><clipPath
       id="clipPath150"><path
         d="m 35,503.332 3255.83,0 0,-465.832 -3255.83,0 0,465.832 z"
         inkscape:connector-curvature="0"
         id="path152" /></clipPath></defs><g
     transform="matrix(1.25,0,0,-1.25,0,71.25)"
     id="g10"><g
       transform="scale(0.1,0.1)"
       id="g12"><g
         id="g14"><g
           clip-path="url(#clipPath18)"
           id="g16"><path
             d="m 65.832,270.832 c 0,-16.566 -13.4336,-30 -30,-30 -16.5664,0 -29.99997,13.434 -29.99997,30 0,16.566 13.43357,30 29.99997,30 16.5664,0 30,-13.434 30,-30"
             inkscape:connector-curvature="0"
             id="path22"
             style="fill:#000000;fill-opacity:1;fill-rule:nonzero;stroke:none" /><path
             d="m 174.168,271.668 c 0,-16.566 -13.434,-30 -30,-30 -16.566,0 -30,13.434 -30,30 0,16.566 13.434,30 30,30 16.566,0 30,-13.434 30,-30"
             inkscape:connector-curvature="0"
             id="path24"
             style="fill:#000000;fill-opacity:1;fill-rule:nonzero;stroke:none" /><path
             d="m 282.5,274.168 c 0,-16.566 -13.434,-30 -30,-30 -16.566,0 -30,13.434 -30,30 0,16.566 13.434,30 30,30 16.566,0 30,-13.434 30,-30"
             inkscape:connector-curvature="0"
             id="path26"
             style="fill:#000000;fill-opacity:1;fill-rule:nonzero;stroke:none" /><path
             d="m 390.832,279.168 c 0,-16.566 -13.434,-30 -30,-30 -16.566,0 -30,13.434 -30,30 0,16.566 13.434,30 30,30 16.566,0 30,-13.434 30,-30"
             inkscape:connector-curvature="0"
             id="path28"
             style="fill:#000000;fill-opacity:1;fill-rule:nonzero;stroke:none" /><path
             d="m 499.168,285 c 0,-16.566 -13.434,-30 -30,-30 -16.566,0 -30,13.434 -30,30 0,16.566 13.434,30 30,30 16.566,0 30,-13.434 30,-30"
             inkscape:connector-curvature="0"
             id="path30"
             style="fill:#000000;fill-opacity:1;fill-rule:nonzero;stroke:none" /><path
             d="m 607.5,293.332 c 0,-16.566 -13.434,-30 -30,-30 -16.566,0 -30,13.434 -30,30 0,16.566 13.434,30 30,30 16.566,0 30,-13.434 30,-30"
             inkscape:connector-curvature="0"
             id="path32"
             style="fill:#000000;fill-opacity:1;fill-rule:nonzero;stroke:none" /><path
             d="m 716.668,303.332 c 0,-16.566 -13.434,-30 -30,-30 -16.566,0 -30,13.434 -30,30 0,16.566 13.434,30 30,30 16.566,0 30,-13.434 30,-30"
             inkscape:connector-curvature="0"
             id="path34"
             style="fill:#000000;fill-opacity:1;fill-rule:nonzero;stroke:none" /><path
             d="m 825,315 c 0,-16.566 -13.434,-30 -30,-30 -16.566,0 -30,13.434 -30,30 0,16.566 13.434,30 30,30 16.566,0 30,-13.434 30,-30"
             inkscape:connector-curvature="0"
             id="path36"
             style="fill:#000000;fill-opacity:1;fill-rule:nonzero;stroke:none" /><path
             d="m 933.332,329.168 c 0,-16.566 -13.434,-30 -30,-30 -16.566,0 -30,13.434 -30,30 0,16.566 13.434,30 30,30 16.566,0 30,-13.434 30,-30"
             inkscape:connector-curvature="0"
             id="path38"
             style="fill:#000000;fill-opacity:1;fill-rule:nonzero;stroke:none" /><path
             d="m 1041.67,344.168 c 0,-16.566 -13.44,-30 -30,-30 -16.568,0 -30.002,13.434 -30.002,30 0,16.566 13.434,30 30.002,30 16.56,0 30,-13.434 30,-30"
             inkscape:connector-curvature="0"
             id="path40"
             style="fill:#000000;fill-opacity:1;fill-rule:nonzero;stroke:none" /><path
             d="m 1150,361.668 c 0,-16.566 -13.43,-30 -30,-30 -16.57,0 -30,13.434 -30,30 0,16.566 13.43,30 30,30 16.57,0 30,-13.434 30,-30"
             inkscape:connector-curvature="0"
             id="path42"
             style="fill:#000000;fill-opacity:1;fill-rule:nonzero;stroke:none" /><path
             d="m 1258.33,380.832 c 0,-16.566 -13.43,-30 -30,-30 -16.56,0 -30,13.434 -30,30 0,16.566 13.44,30 30,30 16.57,0 30,-13.434 30,-30"
             inkscape:connector-curvature="0"
             id="path44"
             style="fill:#000000;fill-opacity:1;fill-rule:nonzero;stroke:none" /><path
             d="m 1367.5,401.668 c 0,-16.566 -13.43,-30 -30,-30 -16.57,0 -30,13.434 -30,30 0,16.566 13.43,30 30,30 16.57,0 30,-13.434 30,-30"
             inkscape:connector-curvature="0"
             id="path46"
             style="fill:#000000;fill-opacity:1;fill-rule:nonzero;stroke:none" /><path
             d="m 1475.83,424.168 c 0,-16.566 -13.43,-30 -30,-30 -16.56,0 -30,13.434 -30,30 0,16.566 13.44,30 30,30 16.57,0 30,-13.434 30,-30"
             inkscape:connector-curvature="0"
             id="path48"
             style="fill:#000000;fill-opacity:1;fill-rule:nonzero;stroke:none" /><path
             d="m 1584.17,449.168 c 0,-16.566 -13.44,-30 -30,-30 -16.57,0 -30,13.434 -30,30 0,16.566 13.43,30 30,30 16.56,0 30,-13.434 30,-30"
             inkscape:connector-curvature="0"
             id="path50"
             style="fill:#000000;fill-opacity:1;fill-rule:nonzero;stroke:none" /><path
             d="m 1692.5,475 c 0,-16.566 -13.43,-30 -30,-30 -16.57,0 -30,13.434 -30,30 0,16.566 13.43,30 30,30 16.57,0 30,-13.434 30,-30"
             inkscape:connector-curvature="0"
             id="path52"
             style="fill:#000000;fill-opacity:1;fill-rule:nonzero;stroke:none" /><path
             d="m 1800.83,503.332 c 0,-16.566 -13.43,-30 -30,-30 -16.56,0 -30,13.434 -30,30 0,16.566 13.44,30 30,30 16.57,0 30,-13.434 30,-30"
             inkscape:connector-curvature="0"
             id="path54"
             style="fill:#000000;fill-opacity:1;fill-rule:nonzero;stroke:none" /><path
             d="m 1909.17,503.332 c 0,-16.566 -13.44,-30 -30,-30 -16.57,0 -30,13.434 -30,30 0,16.566 13.43,30 30,30 16.56,0 30,-13.434 30,-30"
             inkscape:connector-curvature="0"
             id="path56"
             style="fill:#000000;fill-opacity:1;fill-rule:nonzero;stroke:none" /><path
             d="m 2018.33,502.5 c 0,-16.566 -13.43,-30 -30,-30 -16.56,0 -30,13.434 -30,30 0,16.566 13.44,30 30,30 16.57,0 30,-13.434 30,-30"
             inkscape:connector-curvature="0"
             id="path58"
             style="fill:#000000;fill-opacity:1;fill-rule:nonzero;stroke:none" /><path
             d="m 2126.67,500 c 0,-16.566 -13.44,-30 -30,-30 -16.57,0 -30,13.434 -30,30 0,16.566 13.43,30 30,30 16.56,0 30,-13.434 30,-30"
             inkscape:connector-curvature="0"
             id="path60"
             style="fill:#000000;fill-opacity:1;fill-rule:nonzero;stroke:none" /><path
             d="m 2235,492.5 c 0,-16.566 -13.43,-30 -30,-30 -16.57,0 -30,13.434 -30,30 0,16.566 13.43,30 30,30 16.57,0 30,-13.434 30,-30"
             inkscape:connector-curvature="0"
             id="path62"
             style="fill:#000000;fill-opacity:1;fill-rule:nonzero;stroke:none" /><path
             d="m 2343.33,476.668 c 0,-16.566 -13.43,-30 -30,-30 -16.56,0 -30,13.434 -30,30 0,16.566 13.44,30 30,30 16.57,0 30,-13.434 30,-30"
             inkscape:connector-curvature="0"
             id="path64"
             style="fill:#000000;fill-opacity:1;fill-rule:nonzero;stroke:none" /><path
             d="m 2451.67,449.168 c 0,-16.566 -13.44,-30 -30,-30 -16.57,0 -30,13.434 -30,30 0,16.566 13.43,30 30,30 16.56,0 30,-13.434 30,-30"
             inkscape:connector-curvature="0"
             id="path66"
             style="fill:#000000;fill-opacity:1;fill-rule:nonzero;stroke:none" /><path
             d="m 2560,406.668 c 0,-16.566 -13.43,-30 -30,-30 -16.57,0 -30,13.434 -30,30 0,16.566 13.43,30 30,30 16.57,0 30,-13.434 30,-30"
             inkscape:connector-curvature="0"
             id="path68"
             style="fill:#000000;fill-opacity:1;fill-rule:nonzero;stroke:none" /><path
             d="m 2669.17,347.5 c 0,-16.566 -13.44,-30 -30,-30 -16.57,0 -30,13.434 -30,30 0,16.566 13.43,30 30,30 16.56,0 30,-13.434 30,-30"
             inkscape:connector-curvature="0"
             id="path70"
             style="fill:#000000;fill-opacity:1;fill-rule:nonzero;stroke:none" /><path
             d="m 2777.5,273.332 c 0,-16.566 -13.43,-30 -30,-30 -16.57,0 -30,13.434 -30,30 0,16.566 13.43,30 30,30 16.57,0 30,-13.434 30,-30"
             inkscape:connector-curvature="0"
             id="path72"
             style="fill:#000000;fill-opacity:1;fill-rule:nonzero;stroke:none" /><path
             d="m 2885.83,190 c 0,-16.566 -13.43,-30 -30,-30 -16.56,0 -30,13.434 -30,30 0,16.566 13.44,30 30,30 16.57,0 30,-13.434 30,-30"
             inkscape:connector-curvature="0"
             id="path74"
             style="fill:#000000;fill-opacity:1;fill-rule:nonzero;stroke:none" /><path
             d="m 2994.17,110.832 c 0,-16.5664 -13.44,-30 -30,-30 -16.57,0 -30,13.4336 -30,30 0,16.566 13.43,30 30,30 16.56,0 30,-13.434 30,-30"
             inkscape:connector-curvature="0"
             id="path76"
             style="fill:#000000;fill-opacity:1;fill-rule:nonzero;stroke:none" /><path
             d="m 3102.5,54.168 c 0,-16.5664 -13.43,-30 -30,-30 -16.57,0 -30,13.4336 -30,30 0,16.5664 13.43,30 30,30 16.57,0 30,-13.4336 30,-30"
             inkscape:connector-curvature="0"
             id="path78"
             style="fill:#000000;fill-opacity:1;fill-rule:nonzero;stroke:none" /><path
             d="m 3210.83,40 c 0,-16.5664 -13.43,-30 -30,-30 -16.56,0 -30,13.4336 -30,30 0,16.5664 13.44,30 30,30 16.57,0 30,-13.4336 30,-30"
             inkscape:connector-curvature="0"
             id="path80"
             style="fill:#000000;fill-opacity:1;fill-rule:nonzero;stroke:none" /><path
             d="m 3320,84.168 c 0,-16.5664 -13.43,-30 -30,-30 -16.57,0 -30,13.4336 -30,30 0,16.566 13.43,30 30,30 16.57,0 30,-13.434 30,-30"
             inkscape:connector-curvature="0"
             id="path82"
             style="fill:#000000;fill-opacity:1;fill-rule:nonzero;stroke:none" /><path
             d="m 65.832,270.832 c 0,-16.566 -13.4336,-30 -30,-30 -16.5664,0 -29.99997,13.434 -29.99997,30 0,16.566 13.43357,30 29.99997,30 16.5664,0 30,-13.434 30,-30"
             inkscape:connector-curvature="0"
             id="path84"
             style="fill:none;stroke:#000000;stroke-width:10;stroke-linecap:butt;stroke-linejoin:round;stroke-miterlimit:10;stroke-opacity:1;stroke-dasharray:none" /><path
             d="m 174.168,271.668 c 0,-16.566 -13.434,-30 -30,-30 -16.566,0 -30,13.434 -30,30 0,16.566 13.434,30 30,30 16.566,0 30,-13.434 30,-30"
             inkscape:connector-curvature="0"
             id="path86"
             style="fill:none;stroke:#000000;stroke-width:10;stroke-linecap:butt;stroke-linejoin:round;stroke-miterlimit:10;stroke-opacity:1;stroke-dasharray:none" /><path
             d="m 282.5,274.168 c 0,-16.566 -13.434,-30 -30,-30 -16.566,0 -30,13.434 -30,30 0,16.566 13.434,30 30,30 16.566,0 30,-13.434 30,-30"
             inkscape:connector-curvature="0"
             id="path88"
             style="fill:none;stroke:#000000;stroke-width:10;stroke-linecap:butt;stroke-linejoin:round;stroke-miterlimit:10;stroke-opacity:1;stroke-dasharray:none" /><path
             d="m 390.832,279.168 c 0,-16.566 -13.434,-30 -30,-30 -16.566,0 -30,13.434 -30,30 0,16.566 13.434,30 30,30 16.566,0 30,-13.434 30,-30"
             inkscape:connector-curvature="0"
             id="path90"
             style="fill:none;stroke:#000000;stroke-width:10;stroke-linecap:butt;stroke-linejoin:round;stroke-miterlimit:10;stroke-opacity:1;stroke-dasharray:none" /><path
             d="m 499.168,285 c 0,-16.566 -13.434,-30 -30,-30 -16.566,0 -30,13.434 -30,30 0,16.566 13.434,30 30,30 16.566,0 30,-13.434 30,-30"
             inkscape:connector-curvature="0"
             id="path92"
             style="fill:none;stroke:#000000;stroke-width:10;stroke-linecap:butt;stroke-linejoin:round;stroke-miterlimit:10;stroke-opacity:1;stroke-dasharray:none" /><path
             d="m 607.5,293.332 c 0,-16.566 -13.434,-30 -30,-30 -16.566,0 -30,13.434 -30,30 0,16.566 13.434,30 30,30 16.566,0 30,-13.434 30,-30"
             inkscape:connector-curvature="0"
             id="path94"
             style="fill:none;stroke:#000000;stroke-width:10;stroke-linecap:butt;stroke-linejoin:round;stroke-miterlimit:10;stroke-opacity:1;stroke-dasharray:none" /><path
             d="m 716.668,303.332 c 0,-16.566 -13.434,-30 -30,-30 -16.566,0 -30,13.434 -30,30 0,16.566 13.434,30 30,30 16.566,0 30,-13.434 30,-30"
             inkscape:connector-curvature="0"
             id="path96"
             style="fill:none;stroke:#000000;stroke-width:10;stroke-linecap:butt;stroke-linejoin:round;stroke-miterlimit:10;stroke-opacity:1;stroke-dasharray:none" /><path
             d="m 825,315 c 0,-16.566 -13.434,-30 -30,-30 -16.566,0 -30,13.434 -30,30 0,16.566 13.434,30 30,30 16.566,0 30,-13.434 30,-30"
             inkscape:connector-curvature="0"
             id="path98"
             style="fill:none;stroke:#000000;stroke-width:10;stroke-linecap:butt;stroke-linejoin:round;stroke-miterlimit:10;stroke-opacity:1;stroke-dasharray:none" /><path
             d="m 933.332,329.168 c 0,-16.566 -13.434,-30 -30,-30 -16.566,0 -30,13.434 -30,30 0,16.566 13.434,30 30,30 16.566,0 30,-13.434 30,-30"
             inkscape:connector-curvature="0"
             id="path100"
             style="fill:none;stroke:#000000;stroke-width:10;stroke-linecap:butt;stroke-linejoin:round;stroke-miterlimit:10;stroke-opacity:1;stroke-dasharray:none" /><path
             d="m 1041.67,344.168 c 0,-16.566 -13.44,-30 -30,-30 -16.568,0 -30.002,13.434 -30.002,30 0,16.566 13.434,30 30.002,30 16.56,0 30,-13.434 30,-30"
             inkscape:connector-curvature="0"
             id="path102"
             style="fill:none;stroke:#000000;stroke-width:10;stroke-linecap:butt;stroke-linejoin:round;stroke-miterlimit:10;stroke-opacity:1;stroke-dasharray:none" /><path
             d="m 1150,361.668 c 0,-16.566 -13.43,-30 -30,-30 -16.57,0 -30,13.434 -30,30 0,16.566 13.43,30 30,30 16.57,0 30,-13.434 30,-30"
             inkscape:connector-curvature="0"
             id="path104"
             style="fill:none;stroke:#000000;stroke-width:10;stroke-linecap:butt;stroke-linejoin:round;stroke-miterlimit:10;stroke-opacity:1;stroke-dasharray:none" /><path
             d="m 1258.33,380.832 c 0,-16.566 -13.43,-30 -30,-30 -16.56,0 -30,13.434 -30,30 0,16.566 13.44,30 30,30 16.57,0 30,-13.434 30,-30"
             inkscape:connector-curvature="0"
             id="path106"
             style="fill:none;stroke:#000000;stroke-width:10;stroke-linecap:butt;stroke-linejoin:round;stroke-miterlimit:10;stroke-opacity:1;stroke-dasharray:none" /><path
             d="m 1367.5,401.668 c 0,-16.566 -13.43,-30 -30,-30 -16.57,0 -30,13.434 -30,30 0,16.566 13.43,30 30,30 16.57,0 30,-13.434 30,-30"
             inkscape:connector-curvature="0"
             id="path108"
             style="fill:none;stroke:#000000;stroke-width:10;stroke-linecap:butt;stroke-linejoin:round;stroke-miterlimit:10;stroke-opacity:1;stroke-dasharray:none" /><path
             d="m 1475.83,424.168 c 0,-16.566 -13.43,-30 -30,-30 -16.56,0 -30,13.434 -30,30 0,16.566 13.44,30 30,30 16.57,0 30,-13.434 30,-30"
             inkscape:connector-curvature="0"
             id="path110"
             style="fill:none;stroke:#000000;stroke-width:10;stroke-linecap:butt;stroke-linejoin:round;stroke-miterlimit:10;stroke-opacity:1;stroke-dasharray:none" /><path
             d="m 1584.17,449.168 c 0,-16.566 -13.44,-30 -30,-30 -16.57,0 -30,13.434 -30,30 0,16.566 13.43,30 30,30 16.56,0 30,-13.434 30,-30"
             inkscape:connector-curvature="0"
             id="path112"
             style="fill:none;stroke:#000000;stroke-width:10;stroke-linecap:butt;stroke-linejoin:round;stroke-miterlimit:10;stroke-opacity:1;stroke-dasharray:none" /><path
             d="m 1692.5,475 c 0,-16.566 -13.43,-30 -30,-30 -16.57,0 -30,13.434 -30,30 0,16.566 13.43,30 30,30 16.57,0 30,-13.434 30,-30"
             inkscape:connector-curvature="0"
             id="path114"
             style="fill:none;stroke:#000000;stroke-width:10;stroke-linecap:butt;stroke-linejoin:round;stroke-miterlimit:10;stroke-opacity:1;stroke-dasharray:none" /><path
             d="m 1800.83,503.332 c 0,-16.566 -13.43,-30 -30,-30 -16.56,0 -30,13.434 -30,30 0,16.566 13.44,30 30,30 16.57,0 30,-13.434 30,-30"
             inkscape:connector-curvature="0"
             id="path116"
             style="fill:none;stroke:#000000;stroke-width:10;stroke-linecap:butt;stroke-linejoin:round;stroke-miterlimit:10;stroke-opacity:1;stroke-dasharray:none" /><path
             d="m 1909.17,503.332 c 0,-16.566 -13.44,-30 -30,-30 -16.57,0 -30,13.434 -30,30 0,16.566 13.43,30 30,30 16.56,0 30,-13.434 30,-30"
             inkscape:connector-curvature="0"
             id="path118"
             style="fill:none;stroke:#000000;stroke-width:10;stroke-linecap:butt;stroke-linejoin:round;stroke-miterlimit:10;stroke-opacity:1;stroke-dasharray:none" /><path
             d="m 2018.33,502.5 c 0,-16.566 -13.43,-30 -30,-30 -16.56,0 -30,13.434 -30,30 0,16.566 13.44,30 30,30 16.57,0 30,-13.434 30,-30"
             inkscape:connector-curvature="0"
             id="path120"
             style="fill:none;stroke:#000000;stroke-width:10;stroke-linecap:butt;stroke-linejoin:round;stroke-miterlimit:10;stroke-opacity:1;stroke-dasharray:none" /><path
             d="m 2126.67,500 c 0,-16.566 -13.44,-30 -30,-30 -16.57,0 -30,13.434 -30,30 0,16.566 13.43,30 30,30 16.56,0 30,-13.434 30,-30"
             inkscape:connector-curvature="0"
             id="path122"
             style="fill:none;stroke:#000000;stroke-width:10;stroke-linecap:butt;stroke-linejoin:round;stroke-miterlimit:10;stroke-opacity:1;stroke-dasharray:none" /><path
             d="m 2235,492.5 c 0,-16.566 -13.43,-30 -30,-30 -16.57,0 -30,13.434 -30,30 0,16.566 13.43,30 30,30 16.57,0 30,-13.434 30,-30"
             inkscape:connector-curvature="0"
             id="path124"
             style="fill:none;stroke:#000000;stroke-width:10;stroke-linecap:butt;stroke-linejoin:round;stroke-miterlimit:10;stroke-opacity:1;stroke-dasharray:none" /><path
             d="m 2343.33,476.668 c 0,-16.566 -13.43,-30 -30,-30 -16.56,0 -30,13.434 -30,30 0,16.566 13.44,30 30,30 16.57,0 30,-13.434 30,-30"
             inkscape:connector-curvature="0"
             id="path126"
             style="fill:none;stroke:#000000;stroke-width:10;stroke-linecap:butt;stroke-linejoin:round;stroke-miterlimit:10;stroke-opacity:1;stroke-dasharray:none" /><path
             d="m 2451.67,449.168 c 0,-16.566 -13.44,-30 -30,-30 -16.57,0 -30,13.434 -30,30 0,16.566 13.43,30 30,30 16.56,0 30,-13.434 30,-30"
             inkscape:connector-curvature="0"
             id="path128"
             style="fill:none;stroke:#000000;stroke-width:10;stroke-linecap:butt;stroke-linejoin:round;stroke-miterlimit:10;stroke-opacity:1;stroke-dasharray:none" /><path
             d="m 2560,406.668 c 0,-16.566 -13.43,-30 -30,-30 -16.57,0 -30,13.434 -30,30 0,16.566 13.43,30 30,30 16.57,0 30,-13.434 30,-30"
             inkscape:connector-curvature="0"
             id="path130"
             style="fill:none;stroke:#000000;stroke-width:10;stroke-linecap:butt;stroke-linejoin:round;stroke-miterlimit:10;stroke-opacity:1;stroke-dasharray:none" /><path
             d="m 2669.17,347.5 c 0,-16.566 -13.44,-30 -30,-30 -16.57,0 -30,13.434 -30,30 0,16.566 13.43,30 30,30 16.56,0 30,-13.434 30,-30"
             inkscape:connector-curvature="0"
             id="path132"
             style="fill:none;stroke:#000000;stroke-width:10;stroke-linecap:butt;stroke-linejoin:round;stroke-miterlimit:10;stroke-opacity:1;stroke-dasharray:none" /><path
             d="m 2777.5,273.332 c 0,-16.566 -13.43,-30 -30,-30 -16.57,0 -30,13.434 -30,30 0,16.566 13.43,30 30,30 16.57,0 30,-13.434 30,-30"
             inkscape:connector-curvature="0"
             id="path134"
             style="fill:none;stroke:#000000;stroke-width:10;stroke-linecap:butt;stroke-linejoin:round;stroke-miterlimit:10;stroke-opacity:1;stroke-dasharray:none" /><path
             d="m 2885.83,190 c 0,-16.566 -13.43,-30 -30,-30 -16.56,0 -30,13.434 -30,30 0,16.566 13.44,30 30,30 16.57,0 30,-13.434 30,-30"
             inkscape:connector-curvature="0"
             id="path136"
             style="fill:none;stroke:#000000;stroke-width:10;stroke-linecap:butt;stroke-linejoin:round;stroke-miterlimit:10;stroke-opacity:1;stroke-dasharray:none" /><path
             d="m 2994.17,110.832 c 0,-16.5664 -13.44,-30 -30,-30 -16.57,0 -30,13.4336 -30,30 0,16.566 13.43,30 30,30 16.56,0 30,-13.434 30,-30"
             inkscape:connector-curvature="0"
             id="path138"
             style="fill:none;stroke:#000000;stroke-width:10;stroke-linecap:butt;stroke-linejoin:round;stroke-miterlimit:10;stroke-opacity:1;stroke-dasharray:none" /><path
             d="m 3102.5,54.168 c 0,-16.5664 -13.43,-30 -30,-30 -16.57,0 -30,13.4336 -30,30 0,16.5664 13.43,30 30,30 16.57,0 30,-13.4336 30,-30"
             inkscape:connector-curvature="0"
             id="path140"
             style="fill:none;stroke:#000000;stroke-width:10;stroke-linecap:butt;stroke-linejoin:round;stroke-miterlimit:10;stroke-opacity:1;stroke-dasharray:none" /><path
             d="m 3210.83,40 c 0,-16.5664 -13.43,-30 -30,-30 -16.56,0 -30,13.4336 -30,30 0,16.5664 13.44,30 30,30 16.57,0 30,-13.4336 30,-30"
             inkscape:connector-curvature="0"
             id="path142"
             style="fill:none;stroke:#000000;stroke-width:10;stroke-linecap:butt;stroke-linejoin:round;stroke-miterlimit:10;stroke-opacity:1;stroke-dasharray:none" /><path
             d="m 3320,84.168 c 0,-16.5664 -13.43,-30 -30,-30 -16.57,0 -30,13.4336 -30,30 0,16.566 13.43,30 30,30 16.57,0 30,-13.434 30,-30"
             inkscape:connector-curvature="0"
             id="path144"
             style="fill:none;stroke:#000000;stroke-width:10;stroke-linecap:butt;stroke-linejoin:round;stroke-miterlimit:10;stroke-opacity:1;stroke-dasharray:none" /></g></g><g
         id="g146"><g
           clip-path="url(#clipPath150)"
           id="g148"><path
             d="m 40.832,270.832 c 0,-2.758 -2.2422,-5 -5,-5 -2.7578,0 -5,2.242 -5,5 0,2.758 2.2422,5 5,5 2.7578,0 5,-2.242 5,-5"
             inkscape:connector-curvature="0"
             id="path154"
             style="fill:#000000;fill-opacity:1;fill-rule:nonzero;stroke:none" /><path
             d="m 144.168,270.832 0,0.836"
             inkscape:connector-curvature="0"
             id="path156"
             style="fill:none;stroke:#000000;stroke-width:10;stroke-linecap:butt;stroke-linejoin:round;stroke-miterlimit:10;stroke-opacity:1;stroke-dasharray:none" /><path
             d="m 252.5,270.832 0,3.336"
             inkscape:connector-curvature="0"
             id="path158"
             style="fill:none;stroke:#000000;stroke-width:10;stroke-linecap:butt;stroke-linejoin:round;stroke-miterlimit:10;stroke-opacity:1;stroke-dasharray:none" /><path
             d="m 360.832,270.832 0,8.336"
             inkscape:connector-curvature="0"
             id="path160"
             style="fill:none;stroke:#000000;stroke-width:10;stroke-linecap:butt;stroke-linejoin:round;stroke-miterlimit:10;stroke-opacity:1;stroke-dasharray:none" /><path
             d="m 469.168,270.832 0,14.168"
             inkscape:connector-curvature="0"
             id="path162"
             style="fill:none;stroke:#000000;stroke-width:10;stroke-linecap:butt;stroke-linejoin:round;stroke-miterlimit:10;stroke-opacity:1;stroke-dasharray:none" /><path
             d="m 577.5,270.832 0,22.5"
             inkscape:connector-curvature="0"
             id="path164"
             style="fill:none;stroke:#000000;stroke-width:10;stroke-linecap:butt;stroke-linejoin:round;stroke-miterlimit:10;stroke-opacity:1;stroke-dasharray:none" /><path
             d="m 686.668,270.832 0,32.5"
             inkscape:connector-curvature="0"
             id="path166"
             style="fill:none;stroke:#000000;stroke-width:10;stroke-linecap:butt;stroke-linejoin:round;stroke-miterlimit:10;stroke-opacity:1;stroke-dasharray:none" /><path
             d="M 795,270.832 795,315"
             inkscape:connector-curvature="0"
             id="path168"
             style="fill:none;stroke:#000000;stroke-width:10;stroke-linecap:butt;stroke-linejoin:round;stroke-miterlimit:10;stroke-opacity:1;stroke-dasharray:none" /><path
             d="m 903.332,270.832 0,58.336"
             inkscape:connector-curvature="0"
             id="path170"
             style="fill:none;stroke:#000000;stroke-width:10;stroke-linecap:butt;stroke-linejoin:round;stroke-miterlimit:10;stroke-opacity:1;stroke-dasharray:none" /><path
             d="m 1011.67,270.832 0,73.336"
             inkscape:connector-curvature="0"
             id="path172"
             style="fill:none;stroke:#000000;stroke-width:10;stroke-linecap:butt;stroke-linejoin:round;stroke-miterlimit:10;stroke-opacity:1;stroke-dasharray:none" /><path
             d="m 1120,270.832 0,90.836"
             inkscape:connector-curvature="0"
             id="path174"
             style="fill:none;stroke:#000000;stroke-width:10;stroke-linecap:butt;stroke-linejoin:round;stroke-miterlimit:10;stroke-opacity:1;stroke-dasharray:none" /><path
             d="m 1228.33,270.832 0,110"
             inkscape:connector-curvature="0"
             id="path176"
             style="fill:none;stroke:#000000;stroke-width:10;stroke-linecap:butt;stroke-linejoin:round;stroke-miterlimit:10;stroke-opacity:1;stroke-dasharray:none" /><path
             d="m 1337.5,270.832 0,130.836"
             inkscape:connector-curvature="0"
             id="path178"
             style="fill:none;stroke:#000000;stroke-width:10;stroke-linecap:butt;stroke-linejoin:round;stroke-miterlimit:10;stroke-opacity:1;stroke-dasharray:none" /><path
             d="m 1445.83,270.832 0,153.336"
             inkscape:connector-curvature="0"
             id="path180"
             style="fill:none;stroke:#000000;stroke-width:10;stroke-linecap:butt;stroke-linejoin:round;stroke-miterlimit:10;stroke-opacity:1;stroke-dasharray:none" /><path
             d="m 1554.17,270.832 0,178.336"
             inkscape:connector-curvature="0"
             id="path182"
             style="fill:none;stroke:#000000;stroke-width:10;stroke-linecap:butt;stroke-linejoin:round;stroke-miterlimit:10;stroke-opacity:1;stroke-dasharray:none" /><path
             d="m 1662.5,270.832 0,204.168"
             inkscape:connector-curvature="0"
             id="path184"
             style="fill:none;stroke:#000000;stroke-width:10;stroke-linecap:butt;stroke-linejoin:round;stroke-miterlimit:10;stroke-opacity:1;stroke-dasharray:none" /><path
             d="m 1770.83,270.832 0,232.5"
             inkscape:connector-curvature="0"
             id="path186"
             style="fill:none;stroke:#000000;stroke-width:10;stroke-linecap:butt;stroke-linejoin:round;stroke-miterlimit:10;stroke-opacity:1;stroke-dasharray:none" /><path
             d="m 1879.17,270.832 0,232.5"
             inkscape:connector-curvature="0"
             id="path188"
             style="fill:none;stroke:#000000;stroke-width:10;stroke-linecap:butt;stroke-linejoin:round;stroke-miterlimit:10;stroke-opacity:1;stroke-dasharray:none" /><path
             d="m 1988.33,270.832 0,231.668"
             inkscape:connector-curvature="0"
             id="path190"
             style="fill:none;stroke:#000000;stroke-width:10;stroke-linecap:butt;stroke-linejoin:round;stroke-miterlimit:10;stroke-opacity:1;stroke-dasharray:none" /><path
             d="m 2096.67,270.832 0,229.168"
             inkscape:connector-curvature="0"
             id="path192"
             style="fill:none;stroke:#000000;stroke-width:10;stroke-linecap:butt;stroke-linejoin:round;stroke-miterlimit:10;stroke-opacity:1;stroke-dasharray:none" /><path
             d="m 2205,270.832 0,221.668"
             inkscape:connector-curvature="0"
             id="path194"
             style="fill:none;stroke:#000000;stroke-width:10;stroke-linecap:butt;stroke-linejoin:round;stroke-miterlimit:10;stroke-opacity:1;stroke-dasharray:none" /><path
             d="m 2313.33,270.832 0,205.836"
             inkscape:connector-curvature="0"
             id="path196"
             style="fill:none;stroke:#000000;stroke-width:10;stroke-linecap:butt;stroke-linejoin:round;stroke-miterlimit:10;stroke-opacity:1;stroke-dasharray:none" /><path
             d="m 2421.67,270.832 0,178.336"
             inkscape:connector-curvature="0"
             id="path198"
             style="fill:none;stroke:#000000;stroke-width:10;stroke-linecap:butt;stroke-linejoin:round;stroke-miterlimit:10;stroke-opacity:1;stroke-dasharray:none" /><path
             d="m 2530,270.832 0,135.836"
             inkscape:connector-curvature="0"
             id="path200"
             style="fill:none;stroke:#000000;stroke-width:10;stroke-linecap:butt;stroke-linejoin:round;stroke-miterlimit:10;stroke-opacity:1;stroke-dasharray:none" /><path
             d="m 2639.17,270.832 0,76.668"
             inkscape:connector-curvature="0"
             id="path202"
             style="fill:none;stroke:#000000;stroke-width:10;stroke-linecap:butt;stroke-linejoin:round;stroke-miterlimit:10;stroke-opacity:1;stroke-dasharray:none" /><path
             d="m 2747.5,270.832 0,2.5"
             inkscape:connector-curvature="0"
             id="path204"
             style="fill:none;stroke:#000000;stroke-width:10;stroke-linecap:butt;stroke-linejoin:round;stroke-miterlimit:10;stroke-opacity:1;stroke-dasharray:none" /><path
             d="m 2855.83,270.832 0,-80.832"
             inkscape:connector-curvature="0"
             id="path206"
             style="fill:none;stroke:#000000;stroke-width:10;stroke-linecap:butt;stroke-linejoin:round;stroke-miterlimit:10;stroke-opacity:1;stroke-dasharray:none" /><path
             d="m 2964.17,270.832 0,-160"
             inkscape:connector-curvature="0"
             id="path208"
             style="fill:none;stroke:#000000;stroke-width:10;stroke-linecap:butt;stroke-linejoin:round;stroke-miterlimit:10;stroke-opacity:1;stroke-dasharray:none" /><path
             d="m 3072.5,270.832 0,-216.664"
             inkscape:connector-curvature="0"
             id="path210"
             style="fill:none;stroke:#000000;stroke-width:10;stroke-linecap:butt;stroke-linejoin:round;stroke-miterlimit:10;stroke-opacity:1;stroke-dasharray:none" /><path
             d="M 3180.83,270.832 3180.83,40"
             inkscape:connector-curvature="0"
             id="path212"
             style="fill:none;stroke:#000000;stroke-width:10;stroke-linecap:butt;stroke-linejoin:round;stroke-miterlimit:10;stroke-opacity:1;stroke-dasharray:none" /><path
             d="m 3290,270.832 0,-186.664"
             inkscape:connector-curvature="0"
             id="path214"
             style="fill:none;stroke:#000000;stroke-width:10;stroke-linecap:butt;stroke-linejoin:round;stroke-miterlimit:10;stroke-opacity:1;stroke-dasharray:none" /><path
             d="m 35.832,270.832 3254.168,0"
             inkscape:connector-curvature="0"
             id="path216"
             style="fill:none;stroke:#000000;stroke-width:5;stroke-linecap:butt;stroke-linejoin:round;stroke-miterlimit:10;stroke-opacity:1;stroke-dasharray:none" /></g></g></g></g></svg>