<?xml version="1.0" encoding="UTF-8" standalone="no"?>
<!-- Created with Inkscape (http://www.inkscape.org/) -->

<svg
   xmlns:dc="http://purl.org/dc/elements/1.1/"
   xmlns:cc="http://creativecommons.org/ns#"
   xmlns:rdf="http://www.w3.org/1999/02/22-rdf-syntax-ns#"
   xmlns:svg="http://www.w3.org/2000/svg"
   xmlns="http://www.w3.org/2000/svg"
   xmlns:inkscape="http://www.inkscape.org/namespaces/inkscape"
   version="1.1"
   width="428.75"
   height="122.5"
   id="svg2"
   xml:space="preserve"><metadata
     id="metadata8"><rdf:RDF><cc:Work
         rdf:about=""><dc:format>image/svg+xml</dc:format><dc:type
           rdf:resource="http://purl.org/dc/dcmitype/StillImage" /></cc:Work></rdf:RDF></metadata><defs
     id="defs6"><clipPath
       id="clipPath18"><path
         d="m 1.66797,9.16797 3428.33003,0 0,970.832 -3428.33003,0 0,-970.832 z"
         inkscape:connector-curvature="0"
         id="path20" /></clipPath><clipPath
       id="clipPath154"><path
         d="m 85,723.332 3255.83,0 0,-465.832 -3255.83,0 0,465.832 z"
         inkscape:connector-curvature="0"
         id="path156" /></clipPath><clipPath
       id="clipPath180"><path
         d="M 1,9 1,980 3430,980 3430,9 1,9 z"
         inkscape:connector-curvature="0"
         id="path182" /></clipPath></defs><g
     transform="matrix(1.25,0,0,-1.25,0,122.5)"
     id="g10"><g
       transform="scale(0.1,0.1)"
       id="g12"><g
         id="g14"><g
           clip-path="url(#clipPath18)"
           id="g16"><path
             d="m 85.832,258.332 3254.17,0 0,465 -3254.17,0 0,-465 z"
             inkscape:connector-curvature="0"
             id="path22"
             style="fill:#ffffff;fill-opacity:1;fill-rule:evenodd;stroke:none" /><path
             d="m 85.832,258.332 0,465 3254.168,0 0,-465 -3254.168,0"
             inkscape:connector-curvature="0"
             id="path24"
             style="fill:none;stroke:#ffffff;stroke-width:5;stroke-linecap:butt;stroke-linejoin:round;stroke-miterlimit:10;stroke-opacity:1;stroke-dasharray:none" /><path
             d="m 85.832,258.332 3254.168,0"
             inkscape:connector-curvature="0"
             id="path26"
             style="fill:none;stroke:#000000;stroke-width:5;stroke-linecap:butt;stroke-linejoin:round;stroke-miterlimit:10;stroke-opacity:1;stroke-dasharray:none" /><path
             d="m 85.832,258.332 0,465"
             inkscape:connector-curvature="0"
             id="path28"
             style="fill:none;stroke:#000000;stroke-width:5;stroke-linecap:butt;stroke-linejoin:round;stroke-miterlimit:10;stroke-opacity:1;stroke-dasharray:none" /><path
             d="m 85.832,258.332 0,32.5"
             inkscape:connector-curvature="0"
             id="path30"
             style="fill:none;stroke:#000000;stroke-width:5;stroke-linecap:butt;stroke-linejoin:round;stroke-miterlimit:10;stroke-opacity:1;stroke-dasharray:none" /><g
             transform="scale(10,10)"
             id="g32"><text
               transform="matrix(1,0,0,-1,5.8332,13.75)"
               id="text34"><tspan
                 x="0"
                 y="0"
                 id="tspan36"
                 style="font-size:10px;font-variant:normal;font-weight:normal;writing-mode:lr-tb;fill:#000000;fill-opacity:1;fill-rule:nonzero;stroke:none;font-family:Helvetica;-inkscape-font-specification:Helvetica">0</tspan></text>
</g><path
             d="m 550,258.332 0,32.5"
             inkscape:connector-curvature="0"
             id="path38"
             style="fill:none;stroke:#000000;stroke-width:5;stroke-linecap:butt;stroke-linejoin:round;stroke-miterlimit:10;stroke-opacity:1;stroke-dasharray:none" /><g
             transform="scale(10,10)"
             id="g40"><text
               transform="matrix(1,0,0,-1,52.25,13.75)"
               id="text42"><tspan
                 x="0"
                 y="0"
                 id="tspan44"
                 style="font-size:10px;font-variant:normal;font-weight:normal;writing-mode:lr-tb;fill:#000000;fill-opacity:1;fill-rule:nonzero;stroke:none;font-family:Helvetica;-inkscape-font-specification:Helvetica">1</tspan></text>
</g><path
             d="m 1015,258.332 0,32.5"
             inkscape:connector-curvature="0"
             id="path46"
             style="fill:none;stroke:#000000;stroke-width:5;stroke-linecap:butt;stroke-linejoin:round;stroke-miterlimit:10;stroke-opacity:1;stroke-dasharray:none" /><g
             transform="scale(10,10)"
             id="g48"><text
               transform="matrix(1,0,0,-1,98.75,13.75)"
               id="text50"><tspan
                 x="0"
                 y="0"
                 id="tspan52"
                 style="font-size:10px;font-variant:normal;font-weight:normal;writing-mode:lr-tb;fill:#000000;fill-opacity:1;fill-rule:nonzero;stroke:none;font-family:Helvetica;-inkscape-font-specification:Helvetica">2</tspan></text>
</g><path
             d="m 1480,258.332 0,32.5"
             inkscape:connector-curvature="0"
             id="path54"
             style="fill:none;stroke:#000000;stroke-width:5;stroke-linecap:butt;stroke-linejoin:round;stroke-miterlimit:10;stroke-opacity:1;stroke-dasharray:none" /><g
             transform="scale(10,10)"
             id="g56"><text
               transform="matrix(1,0,0,-1,145.25,13.75)"
               id="text58"><tspan
                 x="0"
                 y="0"
                 id="tspan60"
                 style="font-size:10px;font-variant:normal;font-weight:normal;writing-mode:lr-tb;fill:#000000;fill-opacity:1;fill-rule:nonzero;stroke:none;font-family:Helvetica;-inkscape-font-specification:Helvetica">3</tspan></text>
</g><path
             d="m 1945,258.332 0,32.5"
             inkscape:connector-curvature="0"
             id="path62"
             style="fill:none;stroke:#000000;stroke-width:5;stroke-linecap:butt;stroke-linejoin:round;stroke-miterlimit:10;stroke-opacity:1;stroke-dasharray:none" /><g
             transform="scale(10,10)"
             id="g64"><text
               transform="matrix(1,0,0,-1,191.75,13.75)"
               id="text66"><tspan
                 x="0"
                 y="0"
                 id="tspan68"
                 style="font-size:10px;font-variant:normal;font-weight:normal;writing-mode:lr-tb;fill:#000000;fill-opacity:1;fill-rule:nonzero;stroke:none;font-family:Helvetica;-inkscape-font-specification:Helvetica">4</tspan></text>
</g><path
             d="m 2410,258.332 0,32.5"
             inkscape:connector-curvature="0"
             id="path70"
             style="fill:none;stroke:#000000;stroke-width:5;stroke-linecap:butt;stroke-linejoin:round;stroke-miterlimit:10;stroke-opacity:1;stroke-dasharray:none" /><g
             transform="scale(10,10)"
             id="g72"><text
               transform="matrix(1,0,0,-1,238.25,13.75)"
               id="text74"><tspan
                 x="0"
                 y="0"
                 id="tspan76"
                 style="font-size:10px;font-variant:normal;font-weight:normal;writing-mode:lr-tb;fill:#000000;fill-opacity:1;fill-rule:nonzero;stroke:none;font-family:Helvetica;-inkscape-font-specification:Helvetica">5</tspan></text>
</g><path
             d="m 2875,258.332 0,32.5"
             inkscape:connector-curvature="0"
             id="path78"
             style="fill:none;stroke:#000000;stroke-width:5;stroke-linecap:butt;stroke-linejoin:round;stroke-miterlimit:10;stroke-opacity:1;stroke-dasharray:none" /><g
             transform="scale(10,10)"
             id="g80"><text
               transform="matrix(1,0,0,-1,284.75,13.75)"
               id="text82"><tspan
                 x="0"
                 y="0"
                 id="tspan84"
                 style="font-size:10px;font-variant:normal;font-weight:normal;writing-mode:lr-tb;fill:#000000;fill-opacity:1;fill-rule:nonzero;stroke:none;font-family:Helvetica;-inkscape-font-specification:Helvetica">6</tspan></text>
</g><path
             d="m 3340,258.332 0,32.5"
             inkscape:connector-curvature="0"
             id="path86"
             style="fill:none;stroke:#000000;stroke-width:5;stroke-linecap:butt;stroke-linejoin:round;stroke-miterlimit:10;stroke-opacity:1;stroke-dasharray:none" /><g
             transform="scale(10,10)"
             id="g88"><text
               transform="matrix(1,0,0,-1,331.25,13.75)"
               id="text90"><tspan
                 x="0"
                 y="0"
                 id="tspan92"
                 style="font-size:10px;font-variant:normal;font-weight:normal;writing-mode:lr-tb;fill:#000000;fill-opacity:1;fill-rule:nonzero;stroke:none;font-family:Helvetica;-inkscape-font-specification:Helvetica">7</tspan></text>
</g><path
             d="m 85.832,258.332 32.5,0"
             inkscape:connector-curvature="0"
             id="path94"
             style="fill:none;stroke:#000000;stroke-width:5;stroke-linecap:butt;stroke-linejoin:round;stroke-miterlimit:10;stroke-opacity:1;stroke-dasharray:none" /><g
             transform="scale(10,10)"
             id="g96"><text
               transform="matrix(1,0,0,-1,0.166797,22.1668)"
               id="text98"><tspan
                 x="0"
                 y="0"
                 id="tspan100"
                 style="font-size:10px;font-variant:normal;font-weight:normal;writing-mode:lr-tb;fill:#000000;fill-opacity:1;fill-rule:nonzero;stroke:none;font-family:Helvetica;-inkscape-font-specification:Helvetica">0</tspan></text>
</g><path
             d="m 85.832,490.832 32.5,0"
             inkscape:connector-curvature="0"
             id="path102"
             style="fill:none;stroke:#000000;stroke-width:5;stroke-linecap:butt;stroke-linejoin:round;stroke-miterlimit:10;stroke-opacity:1;stroke-dasharray:none" /><g
             transform="scale(10,10)"
             id="g104"><text
               transform="matrix(1,0,0,-1,0.166797,45.4168)"
               id="text106"><tspan
                 x="0"
                 y="0"
                 id="tspan108"
                 style="font-size:10px;font-variant:normal;font-weight:normal;writing-mode:lr-tb;fill:#000000;fill-opacity:1;fill-rule:nonzero;stroke:none;font-family:Helvetica;-inkscape-font-specification:Helvetica">2</tspan></text>
</g><path
             d="m 85.832,723.332 32.5,0"
             inkscape:connector-curvature="0"
             id="path110"
             style="fill:none;stroke:#000000;stroke-width:5;stroke-linecap:butt;stroke-linejoin:round;stroke-miterlimit:10;stroke-opacity:1;stroke-dasharray:none" /><g
             transform="scale(10,10)"
             id="g112"><text
               transform="matrix(1,0,0,-1,0.166797,68.6668)"
               id="text114"><tspan
                 x="0"
                 y="0"
                 id="tspan116"
                 style="font-size:10px;font-variant:normal;font-weight:normal;writing-mode:lr-tb;fill:#000000;fill-opacity:1;fill-rule:nonzero;stroke:none;font-family:Helvetica;-inkscape-font-specification:Helvetica">4</tspan></text>
</g><path
             d="m 115.832,258.332 c 0,-16.566 -13.434,-30 -30,-30 -16.5664,0 -30,13.434 -30,30 0,16.566 13.4336,30 30,30 16.566,0 30,-13.434 30,-30"
             inkscape:connector-curvature="0"
             id="path118"
             style="fill:#000000;fill-opacity:1;fill-rule:nonzero;stroke:none" /><path
             d="m 580,375 c 0,-16.566 -13.434,-30 -30,-30 -16.566,0 -30,13.434 -30,30 0,16.566 13.434,30 30,30 16.566,0 30,-13.434 30,-30"
             inkscape:connector-curvature="0"
             id="path120"
             style="fill:#000000;fill-opacity:1;fill-rule:nonzero;stroke:none" /><path
             d="m 1045,490.832 c 0,-16.566 -13.43,-30 -30,-30 -16.566,0 -30,13.434 -30,30 0,16.566 13.434,30 30,30 16.57,0 30,-13.434 30,-30"
             inkscape:connector-curvature="0"
             id="path122"
             style="fill:#000000;fill-opacity:1;fill-rule:nonzero;stroke:none" /><path
             d="m 1510,606.668 c 0,-16.566 -13.43,-30 -30,-30 -16.57,0 -30,13.434 -30,30 0,16.566 13.43,30 30,30 16.57,0 30,-13.434 30,-30"
             inkscape:connector-curvature="0"
             id="path124"
             style="fill:#000000;fill-opacity:1;fill-rule:nonzero;stroke:none" /><path
             d="m 1975,723.332 c 0,-16.566 -13.43,-30 -30,-30 -16.57,0 -30,13.434 -30,30 0,16.566 13.43,30 30,30 16.57,0 30,-13.434 30,-30"
             inkscape:connector-curvature="0"
             id="path126"
             style="fill:#000000;fill-opacity:1;fill-rule:nonzero;stroke:none" /><path
             d="m 2440,606.668 c 0,-16.566 -13.43,-30 -30,-30 -16.57,0 -30,13.434 -30,30 0,16.566 13.43,30 30,30 16.57,0 30,-13.434 30,-30"
             inkscape:connector-curvature="0"
             id="path128"
             style="fill:#000000;fill-opacity:1;fill-rule:nonzero;stroke:none" /><path
             d="m 2905,490.832 c 0,-16.566 -13.43,-30 -30,-30 -16.57,0 -30,13.434 -30,30 0,16.566 13.43,30 30,30 16.57,0 30,-13.434 30,-30"
             inkscape:connector-curvature="0"
             id="path130"
             style="fill:#000000;fill-opacity:1;fill-rule:nonzero;stroke:none" /><path
             d="m 3370,375 c 0,-16.566 -13.43,-30 -30,-30 -16.57,0 -30,13.434 -30,30 0,16.566 13.43,30 30,30 16.57,0 30,-13.434 30,-30"
             inkscape:connector-curvature="0"
             id="path132"
             style="fill:#000000;fill-opacity:1;fill-rule:nonzero;stroke:none" /><path
             d="m 115.832,258.332 c 0,-16.566 -13.434,-30 -30,-30 -16.5664,0 -30,13.434 -30,30 0,16.566 13.4336,30 30,30 16.566,0 30,-13.434 30,-30"
             inkscape:connector-curvature="0"
             id="path134"
             style="fill:none;stroke:#000000;stroke-width:10;stroke-linecap:butt;stroke-linejoin:round;stroke-miterlimit:10;stroke-opacity:1;stroke-dasharray:none" /><path
             d="m 580,375 c 0,-16.566 -13.434,-30 -30,-30 -16.566,0 -30,13.434 -30,30 0,16.566 13.434,30 30,30 16.566,0 30,-13.434 30,-30"
             inkscape:connector-curvature="0"
             id="path136"
             style="fill:none;stroke:#000000;stroke-width:10;stroke-linecap:butt;stroke-linejoin:round;stroke-miterlimit:10;stroke-opacity:1;stroke-dasharray:none" /><path
             d="m 1045,490.832 c 0,-16.566 -13.43,-30 -30,-30 -16.566,0 -30,13.434 -30,30 0,16.566 13.434,30 30,30 16.57,0 30,-13.434 30,-30"
             inkscape:connector-curvature="0"
             id="path138"
             style="fill:none;stroke:#000000;stroke-width:10;stroke-linecap:butt;stroke-linejoin:round;stroke-miterlimit:10;stroke-opacity:1;stroke-dasharray:none" /><path
             d="m 1510,606.668 c 0,-16.566 -13.43,-30 -30,-30 -16.57,0 -30,13.434 -30,30 0,16.566 13.43,30 30,30 16.57,0 30,-13.434 30,-30"
             inkscape:connector-curvature="0"
             id="path140"
             style="fill:none;stroke:#000000;stroke-width:10;stroke-linecap:butt;stroke-linejoin:round;stroke-miterlimit:10;stroke-opacity:1;stroke-dasharray:none" /><path
             d="m 1975,723.332 c 0,-16.566 -13.43,-30 -30,-30 -16.57,0 -30,13.434 -30,30 0,16.566 13.43,30 30,30 16.57,0 30,-13.434 30,-30"
             inkscape:connector-curvature="0"
             id="path142"
             style="fill:none;stroke:#000000;stroke-width:10;stroke-linecap:butt;stroke-linejoin:round;stroke-miterlimit:10;stroke-opacity:1;stroke-dasharray:none" /><path
             d="m 2440,606.668 c 0,-16.566 -13.43,-30 -30,-30 -16.57,0 -30,13.434 -30,30 0,16.566 13.43,30 30,30 16.57,0 30,-13.434 30,-30"
             inkscape:connector-curvature="0"
             id="path144"
             style="fill:none;stroke:#000000;stroke-width:10;stroke-linecap:butt;stroke-linejoin:round;stroke-miterlimit:10;stroke-opacity:1;stroke-dasharray:none" /><path
             d="m 2905,490.832 c 0,-16.566 -13.43,-30 -30,-30 -16.57,0 -30,13.434 -30,30 0,16.566 13.43,30 30,30 16.57,0 30,-13.434 30,-30"
             inkscape:connector-curvature="0"
             id="path146"
             style="fill:none;stroke:#000000;stroke-width:10;stroke-linecap:butt;stroke-linejoin:round;stroke-miterlimit:10;stroke-opacity:1;stroke-dasharray:none" /><path
             d="m 3370,375 c 0,-16.566 -13.43,-30 -30,-30 -16.57,0 -30,13.434 -30,30 0,16.566 13.43,30 30,30 16.57,0 30,-13.434 30,-30"
             inkscape:connector-curvature="0"
             id="path148"
             style="fill:none;stroke:#000000;stroke-width:10;stroke-linecap:butt;stroke-linejoin:round;stroke-miterlimit:10;stroke-opacity:1;stroke-dasharray:none" /></g></g><g
         id="g150"><g
           clip-path="url(#clipPath154)"
           id="g152"><path
             d="m 90.832,258.332 c 0,-2.758 -2.2422,-5 -5,-5 -2.7578,0 -5,2.242 -5,5 0,2.758 2.2422,5 5,5 2.7578,0 5,-2.242 5,-5"
             inkscape:connector-curvature="0"
             id="path158"
             style="fill:#000000;fill-opacity:1;fill-rule:nonzero;stroke:none" /><path
             d="M 550,258.332 550,375"
             inkscape:connector-curvature="0"
             id="path160"
             style="fill:none;stroke:#000000;stroke-width:10;stroke-linecap:butt;stroke-linejoin:round;stroke-miterlimit:10;stroke-opacity:1;stroke-dasharray:none" /><path
             d="m 1015,258.332 0,232.5"
             inkscape:connector-curvature="0"
             id="path162"
             style="fill:none;stroke:#000000;stroke-width:10;stroke-linecap:butt;stroke-linejoin:round;stroke-miterlimit:10;stroke-opacity:1;stroke-dasharray:none" /><path
             d="m 1480,258.332 0,348.336"
             inkscape:connector-curvature="0"
             id="path164"
             style="fill:none;stroke:#000000;stroke-width:10;stroke-linecap:butt;stroke-linejoin:round;stroke-miterlimit:10;stroke-opacity:1;stroke-dasharray:none" /><path
             d="m 1945,258.332 0,465"
             inkscape:connector-curvature="0"
             id="path166"
             style="fill:none;stroke:#000000;stroke-width:10;stroke-linecap:butt;stroke-linejoin:round;stroke-miterlimit:10;stroke-opacity:1;stroke-dasharray:none" /><path
             d="m 2410,258.332 0,348.336"
             inkscape:connector-curvature="0"
             id="path168"
             style="fill:none;stroke:#000000;stroke-width:10;stroke-linecap:butt;stroke-linejoin:round;stroke-miterlimit:10;stroke-opacity:1;stroke-dasharray:none" /><path
             d="m 2875,258.332 0,232.5"
             inkscape:connector-curvature="0"
             id="path170"
             style="fill:none;stroke:#000000;stroke-width:10;stroke-linecap:butt;stroke-linejoin:round;stroke-miterlimit:10;stroke-opacity:1;stroke-dasharray:none" /><path
             d="M 3340,258.332 3340,375"
             inkscape:connector-curvature="0"
             id="path172"
             style="fill:none;stroke:#000000;stroke-width:10;stroke-linecap:butt;stroke-linejoin:round;stroke-miterlimit:10;stroke-opacity:1;stroke-dasharray:none" /><path
             d="m 85.832,258.332 3254.168,0"
             inkscape:connector-curvature="0"
             id="path174"
             style="fill:none;stroke:#000000;stroke-width:5;stroke-linecap:butt;stroke-linejoin:round;stroke-miterlimit:10;stroke-opacity:1;stroke-dasharray:none" /></g></g><g
         id="g176"><g
           clip-path="url(#clipPath180)"
           id="g178"><g
             transform="scale(10,10)"
             id="g184"><text
               transform="matrix(1,0,0,-1,159,81.5832)"
               id="text186"><tspan
                 x="0"
                 y="0"
                 id="tspan188"
                 style="font-size:14px;font-variant:normal;font-weight:normal;writing-mode:lr-tb;fill:#000000;fill-opacity:1;fill-rule:nonzero;stroke:none;font-family:cmmi10;-inkscape-font-specification:cmmi10">x</tspan></text>
<text
               transform="matrix(1,0,0,-1,167.25,81.5832)"
               id="text190"><tspan
                 x="0"
                 y="0"
                 id="tspan192"
                 style="font-size:14px;font-variant:normal;font-weight:normal;writing-mode:lr-tb;fill:#000000;fill-opacity:1;fill-rule:nonzero;stroke:none;font-family:cmr10;-inkscape-font-specification:cmr10">[</tspan></text>
<text
               transform="matrix(1,0,0,-1,171,81.5832)"
               id="text194"><tspan
                 x="0"
                 y="0"
                 id="tspan196"
                 style="font-size:14px;font-variant:normal;font-weight:normal;writing-mode:lr-tb;fill:#000000;fill-opacity:1;fill-rule:nonzero;stroke:none;font-family:cmmi10;-inkscape-font-specification:cmmi10">n</tspan></text>
<text
               transform="matrix(1,0,0,-1,179.25,81.5832)"
               id="text198"><tspan
                 x="0"
                 y="0"
                 id="tspan200"
                 style="font-size:14px;font-variant:normal;font-weight:normal;writing-mode:lr-tb;fill:#000000;fill-opacity:1;fill-rule:nonzero;stroke:none;font-family:cmr10;-inkscape-font-specification:cmr10">]</tspan></text>
<text
               transform="matrix(1,0,0,-1,166.8332,3.1668)"
               id="text202"><tspan
                 x="0"
                 y="0"
                 id="tspan204"
                 style="font-size:14px;font-variant:normal;font-weight:normal;writing-mode:lr-tb;fill:#000000;fill-opacity:1;fill-rule:nonzero;stroke:none;font-family:cmmi10;-inkscape-font-specification:cmmi10">n</tspan></text>
</g></g></g></g></g></svg>
